#VRML V2.0 utf8
# 3D model generated by kicad-lcsc-manager
# Based on easyeda2kicad.py v1.0.1

Shape{
    appearance Appearance {
        material  Material {
            diffuseColor 1.0 1.0 1.0
            specularColor 0.30196078431372547 0.30196078431372547 0.30196078431372547
            ambientIntensity 1.0
            transparency 0.0
            shininess 0.5
        }
    }
    geometry IndexedFaceSet {
        ccw TRUE
        solid FALSE
        coord DEF co Coordinate {
            point [
                -0.689 1.8996 0.1378, -0.9843 1.8996 0.1378, -0.689 1.8996 1.7913, -0.9843 1.8996 1.5945, -0.9843 1.8996 1.7913, -1.1811 1.8996 1.5945, -0.9843 1.8996 1.9882, -1.1811 1.8996 1.9882, 0.9843 1.8996 0.1378, 0.689 1.8996 0.1378, 0.9843 1.8996 1.5945, 0.689 1.8996 1.7913, 1.1811 1.8996 1.5945, 0.9843 1.8996 1.7913, 1.1811 1.8996 1.9882, 0.9843 1.8996 1.9882, -0.0619 1.4075 0.9695, 0.0245 1.4075 0.9695, 0.0245 1.4075 1.9882, -0.2902 1.4075 1.2015, -0.2953 1.4075 1.2008, -0.2537 1.4075 0.9695, -0.0619 1.4075 0.7375, -0.0735 1.4075 0.6377, -0.0619 1.4075 0.6179, -0.0735 1.4075 0.6247, -0.086 1.4075 0.6196, -0.0908 1.4075 0.7375, -0.0871 1.4075 0.7372, -0.0735 1.4075 0.7335, -0.0735 1.4075 0.7177, -0.0868 1.4075 0.7233, -0.0756 1.4075 0.6365, -0.1011 1.4075 0.7252, -0.1127 1.4075 0.7239, -0.1216 1.4075 0.7207, -0.1298 1.4075 0.7152, -0.1369 1.4075 0.7074, -0.1455 1.4075 0.6764, -0.1443 1.4075 0.6636, -0.1411 1.4075 0.6535, -0.1148 1.4075 0.6314, -0.1038 1.4075 0.6301, -0.1234 1.4075 0.6346, -0.1306 1.4075 0.6394, -0.1362 1.4075 0.6453, -0.0881 1.4075 0.6319, -0.1418 1.4075 0.6983, -0.1449 1.4075 0.6856, -0.1013 1.4075 0.7382, -0.1101 1.4075 0.7375, -0.1664 1.4075 0.9695, -0.1129 1.4075 0.6179, -0.1205 1.4075 0.6187, -0.1664 1.4075 0.6179, -0.132 1.4075 0.6226, -0.1415 1.4075 0.6287, -0.1613 1.4075 0.6755, -0.1596 1.4075 0.6922, -0.1664 1.4075 0.7375, -0.1551 1.4075 0.7056, -0.1482 1.4075 0.7167, -0.1375 1.4075 0.7269, -0.1263 1.4075 0.7334, -0.1131 1.4075 0.7372, -0.1503 1.4075 0.638, -0.1566 1.4075 0.6493, -0.1602 1.4075 0.6618, -0.106 1.4075 0.6172, -0.1664 1.4075 0.3346, -0.1027 1.4075 0.6172, -0.0619 1.4075 0.3346, -0.098 1.4075 0.6179, -0.748 1.4075 0.9695, -0.748 1.4075 1.7913, -0.9843 1.4075 0.9695, -0.9843 1.4075 1.7913, -0.2902 1.4075 1.4363, -0.2854 1.4075 1.4344, -0.2537 1.4075 1.7913, -0.4921 1.4075 1.2008, -0.4972 1.4075 1.2015, -0.502 1.4075 1.2034, -0.506 1.4075 1.2066, -0.5092 1.4075 1.2106, -0.2782 1.4075 1.2106, -0.2814 1.4075 1.2066, -0.2854 1.4075 1.2034, -0.502 1.4075 1.4344, -0.689 1.4075 1.7913, -0.506 1.4075 1.4312, -0.5092 1.4075 1.4272, -0.5111 1.4075 1.4224, -0.5111 1.4075 1.2154, -0.5118 1.4075 1.2205, -0.5118 1.4075 1.4173, -0.4972 1.4075 1.4363, -0.4921 1.4075 1.437, -0.2953 1.4075 1.437, -0.2814 1.4075 1.4312, -0.2782 1.4075 1.4272, -0.2763 1.4075 1.4224, -0.2756 1.4075 1.4173, -0.2756 1.4075 1.2205, -0.2763 1.4075 1.2154, -0.0619 1.4075 1.9882, -0.1181 1.4075 1.9882, -0.1181 1.4075 1.7913, 0.2609 1.4075 0.9695, 0.2609 1.4075 1.7913, 0.1354 1.4075 0.9695, 0.1354 1.4075 1.7913, 0.1181 1.4075 1.7913, 0.1181 1.4075 1.9882, 0.4972 1.4075 1.4363, 0.502 1.4075 1.4344, 0.689 1.4075 1.7913, 0.5092 1.4075 1.2106, 0.506 1.4075 1.2066, 0.9843 1.4075 0.9695, 0.2814 1.4075 1.2066, 0.2782 1.4075 1.2106, 0.9843 1.4075 1.7913, 0.506 1.4075 1.4312, 0.5092 1.4075 1.4272, 0.2953 1.4075 1.2008, 0.2902 1.4075 1.2015, 0.2854 1.4075 1.2034, 0.2763 1.4075 1.2154, 0.2756 1.4075 1.2205, 0.2756 1.4075 1.4173, 0.2763 1.4075 1.4224, 0.2782 1.4075 1.4272, 0.2814 1.4075 1.4312, 0.2854 1.4075 1.4344, 0.5111 1.4075 1.2154, 0.502 1.4075 1.2034, 0.4972 1.4075 1.2015, 0.4921 1.4075 1.2008, 0.2902 1.4075 1.4363, 0.2953 1.4075 1.437, 0.4921 1.4075 1.437, 0.5111 1.4075 1.4224, 0.5118 1.4075 1.4173, 0.5118 1.4075 1.2205, 0.157 1.4075 0.6186, 0.1397 1.4075 0.6186, 0.1354 1.4075 0.6179, 0.1354 1.4075 0.7375, 0.2002 1.4075 0.7367, 0.2463 1.4075 0.6186, 0.2609 1.4075 0.6179, 0.229 1.4075 0.6186, 0.2171 1.4075 0.6518, 0.1683 1.4075 0.6518, 0.1844 1.4075 0.7367, 0.2609 1.4075 0.7375, 0.9843 1.4075 0.7375, 0.9843 1.4075 0.6179, 0.0693 1.4075 0.7367, 0.0245 1.4075 0.7375, 0.0864 1.4075 0.7349, 0.1002 1.4075 0.7301, 0.1131 1.4075 0.7214, 0.1252 1.4075 0.651, 0.1184 1.4075 0.6404, 0.1087 1.4075 0.6311, 0.0963 1.4075 0.624, 0.1132 1.4075 0.7213, 0.1216 1.4075 0.7121, 0.127 1.4075 0.7019, 0.0827 1.4075 0.6199, 0.0681 1.4075 0.6186, 0.0245 1.4075 0.6179, 0.036 1.4075 0.6186, 0.036 1.4075 0.7367, 0.1302 1.4075 0.6903, 0.1311 1.4075 0.6792, 0.1294 1.4075 0.6634, 0.9843 1.4075 0.3346, 0.2609 1.4075 0.3346, 0.1354 1.4075 0.3346, 0.0245 1.4075 0.3346, 0.0101 1.4075 0.7367, 0.0101 1.4075 0.7238, 0.013 1.4075 0.6316, 0.013 1.4075 0.6186, -0.0504 1.4075 0.6186, -0.0504 1.4075 0.7367, -0.0346 1.4075 0.6719, -0.0346 1.4075 0.6316, 0.0072 1.4075 0.6719, 0.0072 1.4075 0.6849, -0.0346 1.4075 0.6849, -0.0346 1.4075 0.7238, -0.1664 1.4075 1.7913, -0.2319 1.4075 0.6186, -0.2319 1.4075 0.7367, -0.2537 1.4075 0.7375, -0.2161 1.4075 0.7367, -0.1714 1.4075 0.6316, -0.2161 1.4075 0.6316, -0.2537 1.4075 0.3346, -0.2537 1.4075 0.6179, -0.748 1.4075 0.3346, -0.748 1.4075 0.6179, -0.9843 1.4075 0.3346, -0.9843 1.4075 0.6179, -0.1714 1.4075 0.6186, -0.748 1.4075 0.7375, -0.9843 1.4075 0.7375, 0.0984 1.7776 0.1378, 0.2898 1.7776 1.149, 0.2909 1.7776 1.1482, 0.2953 1.7776 1.1466, 0.4921 1.7776 1.1466, 0.689 1.7776 0.1378, 0.4937 1.7776 1.1468, 0.4946 1.7776 1.1471, 0.2918 1.7776 1.1476, 0.2932 1.7776 1.147, 0.2947 1.7776 1.1467, 0.5091 1.7776 1.4178, 0.5085 1.7776 1.4189, 0.689 1.7776 1.7913, 0.5073 1.7776 1.4207, 0.506 1.7776 1.422, 0.0984 1.7776 1.9882, 0.2908 1.7776 1.4275, 0.2902 1.7776 1.4273, 0.2889 1.7776 1.4269, 0.2848 1.7776 1.4249, 0.2832 1.7776 1.4238, 0.4974 1.7776 1.1489, 0.5012 1.7776 1.153, 0.5118 1.7776 1.4077, 0.5112 1.7776 1.4126, 0.5039 1.7776 1.424, 0.5021 1.7776 1.4252, 0.689 1.7776 1.9882, 0.4979 1.7776 1.4271, 0.4972 1.7776 1.4273, 0.4959 1.7776 1.4276, 0.4921 1.7776 1.428, 0.2953 1.7776 1.428, 0.5111 1.7776 1.4129, 0.5106 1.7776 1.4146, 0.2831 1.7776 1.1581, 0.2834 1.7776 1.1574, 0.2871 1.7776 1.1518, 0.4965 1.7776 1.1482, 0.4968 1.7776 1.1484, 0.5026 1.7776 1.1551, 0.5041 1.7776 1.1583, 0.5052 1.7776 1.1606, 0.2815 1.7776 1.422, 0.2799 1.7776 1.4204, 0.2789 1.7776 1.4189, 0.2783 1.7776 1.4178, 0.2767 1.7776 1.4145, 0.2763 1.7776 1.413, 0.2765 1.7776 1.1789, 0.2773 1.7776 1.1728, 0.2785 1.7776 1.1686, 0.2762 1.7776 1.4127, 0.2756 1.7776 1.4077, 0.2756 1.7776 1.186, 0.2801 1.7776 1.1649, 0.282 1.7776 1.1606, 0.5073 1.7776 1.1649, 0.5086 1.7776 1.1678, 0.5097 1.7776 1.1712, 0.5109 1.7776 1.1789, 0.5118 1.7776 1.184, 0.5118 1.7776 1.186, -0.689 1.7776 0.1378, -0.4976 1.7776 1.149, -0.4965 1.7776 1.1482, -0.4921 1.7776 1.1466, -0.2953 1.7776 1.1466, -0.0984 1.7776 0.1378, -0.2937 1.7776 1.1468, -0.2928 1.7776 1.1471, -0.4956 1.7776 1.1476, -0.4942 1.7776 1.147, -0.4927 1.7776 1.1467, -0.2783 1.7776 1.4178, -0.2789 1.7776 1.4189, -0.0984 1.7776 1.9882, -0.2802 1.7776 1.4207, -0.2814 1.7776 1.422, -0.2835 1.7776 1.424, -0.2853 1.7776 1.4252, -0.2895 1.7776 1.4271, -0.2902 1.7776 1.4273, -0.4966 1.7776 1.4275, -0.4972 1.7776 1.4273, -0.689 1.7776 1.9882, -0.4985 1.7776 1.4269, -0.689 1.7776 1.7913, -0.29 1.7776 1.1489, -0.2862 1.7776 1.153, -0.2756 1.7776 1.4077, -0.2762 1.7776 1.4126, -0.2915 1.7776 1.4276, -0.2953 1.7776 1.428, -0.4921 1.7776 1.428, -0.2763 1.7776 1.4129, -0.2768 1.7776 1.4146, -0.5043 1.7776 1.1581, -0.504 1.7776 1.1574, -0.5003 1.7776 1.1518, -0.2909 1.7776 1.1482, -0.2906 1.7776 1.1484, -0.2848 1.7776 1.1551, -0.2833 1.7776 1.1583, -0.2822 1.7776 1.1606, -0.5026 1.7776 1.4249, -0.5042 1.7776 1.4238, -0.5059 1.7776 1.422, -0.5075 1.7776 1.4204, -0.5085 1.7776 1.4189, -0.5091 1.7776 1.4178, -0.5107 1.7776 1.4145, -0.5111 1.7776 1.413, -0.5112 1.7776 1.4127, -0.5101 1.7776 1.1728, -0.5089 1.7776 1.1686, -0.5118 1.7776 1.4077, -0.5118 1.7776 1.186, -0.5109 1.7776 1.1789, -0.5073 1.7776 1.1649, -0.5054 1.7776 1.1606, -0.2801 1.7776 1.1649, -0.2788 1.7776 1.1678, -0.2777 1.7776 1.1712, -0.2765 1.7776 1.1789, -0.2756 1.7776 1.184, -0.2756 1.7776 1.186, 0.0984 1.8996 0.1378, -0.0984 1.8996 0.1378, 0.0984 1.8996 1.9882, -0.0984 1.8996 1.9882, 1.0834 -0.561 1.5157, 1.1811 -0.561 1.5157, 1.0834 -0.561 1.8904, 1.1811 -0.561 1.9882, 0.1181 -0.561 1.8904, 0.1181 -0.561 1.9882, -0.1181 -0.561 1.8904, -0.1181 -0.561 1.9882, -1.0834 -0.561 1.8904, -1.1811 -0.561 1.9882, -1.0834 -0.561 1.5157, -1.1811 -0.561 1.5157, -0.9843 -0.4429 1.7913, -0.9843 -0.4429 1.5157, 0.9843 -0.4429 1.7913, 0.9843 -0.4429 1.5157, -1.1811 -0.561 0.0197, -1.1811 2.4705 0.0197, -0.9843 -0.561 0.0197, -0.9843 2.4705 0.0197, 1.1811 0.3051 1.5157, 1.1811 -0.561 1.122, 1.1811 -0.561 0.0197, 1.1811 0.3051 1.122, 1.1811 2.4705 0.0197, 1.1811 2.4705 1.2649, -1.1811 -0.561 1.122, -1.1811 0.3051 1.122, -1.1811 2.4705 1.2649, -1.1811 0.3051 1.5157, -1.0834 -0.561 0.2355, -1.0834 -0.561 1.122, -0.9843 -0.561 0.1378, 1.0834 -0.561 0.2355, 0.9843 -0.561 0.1378, 0.9843 -0.561 0.0197, 1.0834 -0.561 1.122, 0.9843 0.1476 1.9882, -0.9843 0.1476 1.9882, -0.689 0.1476 1.9882, 0.689 0.1476 1.9882, 0.9843 2.4705 0.0197, 0.689 0.1476 1.7913, 0.1181 -0.4429 1.7913, 0.9843 0.1476 1.7913, 0.9843 0.3051 1.5157, 0.9843 0.3051 1.122, 0.9843 -0.4429 0.3346, 0.9843 -0.4429 1.122, -0.9843 -0.4429 0.3346, -0.9843 0.1476 1.7913, -0.9843 0.3051 1.5157, -0.9843 -0.4429 1.122, -0.9843 0.3051 1.122, -0.1181 -0.4429 1.7913, -0.689 0.1476 1.7913, -0.9843 2.4705 1.2649, 0.9843 2.4705 1.2649
            ]
        }
        coordIndex [
            0,1,2,-1,2,1,3,-1,2,3,4,-1,4,3,5,-1,4,5,6,-1,6,5,7,-1,8,9,10,-1,10,9,11,-1,10,11,12,-1,12,11,13,-1,12,13,14,-1,14,13,15,-1,16,17,18,-1,19,20,21,-1,22,23,24,-1,24,23,25,-1,24,25,26,-1,22,27,28,-1,28,29,22,-1,22,29,30,-1,22,30,23,-1,23,30,31,-1,23,31,32,-1,32,31,33,-1,32,33,34,-1,34,35,32,-1,32,35,36,-1,32,36,37,-1,38,39,32,-1,32,39,40,-1,41,42,43,-1,43,42,44,-1,40,45,32,-1,32,45,44,-1,32,44,46,-1,46,44,42,-1,37,47,32,-1,32,47,48,-1,32,48,38,-1,49,16,50,-1,50,16,51,-1,52,53,54,-1,54,53,55,-1,54,55,56,-1,57,58,59,-1,59,58,60,-1,59,60,61,-1,61,62,59,-1,59,62,63,-1,59,63,64,-1,56,65,54,-1,54,65,66,-1,54,66,67,-1,68,69,70,-1,70,69,71,-1,70,71,72,-1,73,74,75,-1,75,74,76,-1,77,78,79,-1,21,20,73,-1,73,20,80,-1,73,80,81,-1,81,82,73,-1,73,82,83,-1,73,83,84,-1,85,86,21,-1,21,86,87,-1,21,87,19,-1,88,89,90,-1,90,89,74,-1,90,74,91,-1,91,74,92,-1,84,93,73,-1,73,93,94,-1,73,94,74,-1,74,94,95,-1,74,95,92,-1,88,96,89,-1,89,96,97,-1,89,97,79,-1,79,97,98,-1,79,98,77,-1,78,99,79,-1,79,99,100,-1,79,100,101,-1,102,103,21,-1,21,103,104,-1,21,104,85,-1,105,106,107,-1,108,109,110,-1,110,109,111,-1,110,111,17,-1,17,111,112,-1,17,112,18,-1,18,112,113,-1,114,115,116,-1,117,118,119,-1,108,120,121,-1,116,115,122,-1,122,115,123,-1,122,123,124,-1,125,126,108,-1,108,126,127,-1,108,127,120,-1,121,128,108,-1,108,128,129,-1,108,129,109,-1,109,129,130,-1,109,130,131,-1,131,132,109,-1,109,132,133,-1,109,133,134,-1,117,119,135,-1,118,136,119,-1,119,136,137,-1,119,137,108,-1,108,137,138,-1,108,138,125,-1,134,139,109,-1,109,139,140,-1,109,140,116,-1,116,140,141,-1,116,141,114,-1,124,142,122,-1,122,142,143,-1,122,143,119,-1,119,143,144,-1,119,144,135,-1,145,146,147,-1,147,146,148,-1,149,150,151,-1,151,150,152,-1,153,154,152,-1,152,154,145,-1,152,145,151,-1,151,145,147,-1,146,155,148,-1,148,155,149,-1,148,149,156,-1,156,149,151,-1,156,151,157,-1,157,151,158,-1,159,148,160,-1,159,161,148,-1,148,161,162,-1,148,162,163,-1,164,165,147,-1,147,165,166,-1,147,166,167,-1,163,168,148,-1,148,168,169,-1,148,169,170,-1,167,171,147,-1,147,171,172,-1,147,172,173,-1,173,172,174,-1,173,174,160,-1,160,174,175,-1,160,175,159,-1,170,176,148,-1,148,176,177,-1,148,177,147,-1,147,177,178,-1,147,178,164,-1,179,158,180,-1,180,158,151,-1,180,151,181,-1,181,151,147,-1,181,147,182,-1,182,147,173,-1,182,173,71,-1,71,173,24,-1,71,24,72,-1,72,24,26,-1,183,160,22,-1,183,184,160,-1,160,184,185,-1,160,185,173,-1,173,185,186,-1,173,186,24,-1,24,186,187,-1,24,187,22,-1,22,187,188,-1,22,188,183,-1,189,190,191,-1,191,190,185,-1,191,185,192,-1,192,185,184,-1,192,184,193,-1,193,184,194,-1,157,119,156,-1,156,119,108,-1,156,108,148,-1,148,108,110,-1,148,110,160,-1,160,110,17,-1,160,17,22,-1,22,17,16,-1,22,16,27,-1,27,16,49,-1,101,102,79,-1,79,102,21,-1,79,21,195,-1,195,21,51,-1,195,51,107,-1,107,51,16,-1,107,16,105,-1,105,16,18,-1,196,197,198,-1,198,197,199,-1,198,199,59,-1,67,57,54,-1,54,57,59,-1,54,59,200,-1,200,59,199,-1,200,199,201,-1,68,52,69,-1,69,52,54,-1,69,54,202,-1,202,54,203,-1,202,203,204,-1,204,203,205,-1,204,205,206,-1,206,205,207,-1,200,208,54,-1,54,208,196,-1,54,196,203,-1,203,196,198,-1,203,198,205,-1,205,198,209,-1,205,209,207,-1,207,209,210,-1,64,50,59,-1,59,50,51,-1,59,51,198,-1,198,51,21,-1,198,21,209,-1,209,21,73,-1,209,73,210,-1,210,73,75,-1,211,212,213,-1,214,215,216,-1,216,215,217,-1,216,217,218,-1,213,219,211,-1,211,219,220,-1,211,220,216,-1,216,220,221,-1,216,221,214,-1,222,223,224,-1,224,223,225,-1,224,225,226,-1,227,228,229,-1,229,230,227,-1,227,230,231,-1,227,231,232,-1,233,234,216,-1,235,236,224,-1,226,237,224,-1,224,237,238,-1,224,238,239,-1,239,238,240,-1,239,240,241,-1,241,242,239,-1,239,242,243,-1,239,243,227,-1,227,243,244,-1,227,244,228,-1,236,245,224,-1,224,245,246,-1,224,246,222,-1,247,248,211,-1,211,248,249,-1,211,249,212,-1,218,250,216,-1,216,250,251,-1,216,251,233,-1,234,252,216,-1,216,252,253,-1,216,253,254,-1,232,255,227,-1,227,255,256,-1,227,256,257,-1,257,258,227,-1,227,258,259,-1,227,259,260,-1,261,262,211,-1,211,262,263,-1,260,264,227,-1,227,264,265,-1,227,265,211,-1,211,265,266,-1,211,266,261,-1,263,267,211,-1,211,267,268,-1,211,268,247,-1,254,269,216,-1,216,269,270,-1,216,270,271,-1,271,272,216,-1,216,272,273,-1,216,273,224,-1,224,273,274,-1,224,274,235,-1,275,276,277,-1,278,279,280,-1,280,279,281,-1,280,281,282,-1,277,283,275,-1,275,283,284,-1,275,284,280,-1,280,284,285,-1,280,285,278,-1,286,287,288,-1,287,289,288,-1,288,289,290,-1,288,290,291,-1,291,292,288,-1,288,292,293,-1,288,293,294,-1,295,296,297,-1,297,296,298,-1,297,298,299,-1,300,301,280,-1,302,303,288,-1,294,304,288,-1,288,304,305,-1,288,305,297,-1,297,305,306,-1,297,306,295,-1,303,307,288,-1,288,307,308,-1,288,308,286,-1,309,310,275,-1,275,310,311,-1,275,311,276,-1,282,312,280,-1,280,312,313,-1,280,313,300,-1,301,314,280,-1,280,314,315,-1,280,315,316,-1,298,317,299,-1,299,317,318,-1,299,318,319,-1,319,320,299,-1,299,320,321,-1,299,321,322,-1,322,323,299,-1,299,323,324,-1,299,324,325,-1,275,326,327,-1,325,328,299,-1,299,328,329,-1,299,329,275,-1,275,329,330,-1,275,330,326,-1,327,331,275,-1,275,331,332,-1,275,332,309,-1,316,333,280,-1,280,333,334,-1,280,334,335,-1,335,336,280,-1,280,336,337,-1,280,337,288,-1,288,337,338,-1,288,338,302,-1,339,340,341,-1,341,340,342,-1,343,344,345,-1,345,344,346,-1,345,346,347,-1,347,346,348,-1,349,350,351,-1,351,350,352,-1,351,352,353,-1,353,352,354,-1,355,351,356,-1,356,351,353,-1,345,357,343,-1,343,357,358,-1,359,360,361,-1,361,360,362,-1,346,344,363,-1,364,365,366,-1,366,365,367,-1,367,368,366,-1,366,368,12,-1,366,12,363,-1,363,12,14,-1,363,14,346,-1,359,369,360,-1,360,369,370,-1,371,360,5,-1,5,360,370,-1,5,370,7,-1,7,370,372,-1,7,372,352,-1,352,372,354,-1,373,374,369,-1,359,361,375,-1,369,359,373,-1,373,359,375,-1,373,375,376,-1,376,375,377,-1,377,378,376,-1,376,378,365,-1,376,365,379,-1,379,365,364,-1,14,15,380,-1,6,7,381,-1,381,7,352,-1,381,352,382,-1,382,352,350,-1,382,350,297,-1,297,350,106,-1,297,106,288,-1,288,106,227,-1,288,227,342,-1,342,227,341,-1,106,105,227,-1,227,105,18,-1,227,18,239,-1,239,18,113,-1,239,113,383,-1,383,113,348,-1,383,348,380,-1,380,348,346,-1,380,346,14,-1,367,365,384,-1,384,365,378,-1,111,116,385,-1,112,111,386,-1,386,111,385,-1,386,385,357,-1,357,385,387,-1,387,380,15,-1,15,13,122,-1,358,357,388,-1,388,357,387,-1,387,15,388,-1,388,15,122,-1,388,122,389,-1,389,122,119,-1,389,119,157,-1,390,391,179,-1,179,391,389,-1,179,389,158,-1,158,389,157,-1,179,181,390,-1,390,181,182,-1,390,182,392,-1,392,182,71,-1,392,71,69,-1,69,202,392,-1,392,202,204,-1,392,204,206,-1,355,356,393,-1,393,356,394,-1,393,394,381,-1,381,394,6,-1,395,392,396,-1,396,392,206,-1,396,206,207,-1,4,6,76,-1,76,6,394,-1,76,394,75,-1,75,394,396,-1,75,396,210,-1,210,396,207,-1,355,393,397,-1,397,393,398,-1,397,398,89,-1,89,79,397,-1,397,79,195,-1,397,195,107,-1,107,106,397,-1,397,106,350,-1,397,350,349,-1,113,112,348,-1,348,112,386,-1,348,386,347,-1,375,361,1,-1,1,361,362,-1,1,362,3,-1,3,362,399,-1,1,0,275,-1,280,377,275,-1,275,377,375,-1,275,375,1,-1,9,8,216,-1,216,8,377,-1,216,377,211,-1,211,377,280,-1,211,280,339,-1,339,280,340,-1,378,377,8,-1,10,400,8,-1,8,400,384,-1,8,384,378,-1,398,382,89,-1,89,382,297,-1,89,297,299,-1,398,393,382,-1,382,393,381,-1,4,76,2,-1,2,76,74,-1,2,74,299,-1,299,74,89,-1,387,385,380,-1,380,385,383,-1,383,385,239,-1,239,385,116,-1,239,116,224,-1,116,122,224,-1,224,122,13,-1,224,13,11,-1,351,355,349,-1,349,355,397,-1,373,392,374,-1,374,392,395,-1,376,390,373,-1,373,390,392,-1,390,376,391,-1,391,376,379,-1,347,386,345,-1,345,386,357,-1,388,363,358,-1,358,363,344,-1,358,344,343,-1,366,389,364,-1,364,389,391,-1,364,391,379,-1,363,388,366,-1,366,388,389,-1,370,396,372,-1,372,396,394,-1,372,394,354,-1,354,394,356,-1,354,356,353,-1,396,370,395,-1,395,370,369,-1,395,369,374,-1,342,340,288,-1,288,340,280,-1,299,275,2,-1,2,275,0,-1,
        ]
    }
}
Shape{
    appearance Appearance {
        material  Material {
            diffuseColor 0.4392156862745098 0.4392156862745098 0.4392156862745098
            specularColor 0.2196078431372549 0.2196078431372549 0.2196078431372549
            ambientIntensity 0.4392
            transparency 0.0
            shininess 0.5
        }
    }
    geometry IndexedFaceSet {
        ccw TRUE
        solid FALSE
        coord DEF co Coordinate {
            point [
                0.2002 1.4114 0.7367, 0.2463 1.4114 0.6186, 0.2002 1.4075 0.7367, 0.2463 1.4075 0.6186, 0.229 1.4114 0.6186, 0.229 1.4075 0.6186, 0.2171 1.4114 0.6518, 0.2171 1.4075 0.6518, 0.1683 1.4114 0.6518, 0.1683 1.4075 0.6518, 0.157 1.4114 0.6186, 0.157 1.4075 0.6186, 0.1397 1.4114 0.6186, 0.1397 1.4075 0.6186, 0.1844 1.4114 0.7367, 0.1844 1.4075 0.7367, 0.1723 1.4114 0.6647, 0.1899 1.4114 0.714, 0.191 1.4114 0.7181, 0.1918 1.4114 0.7223, 0.1922 1.4114 0.7223, 0.1929 1.4114 0.7182, 0.2118 1.4114 0.6647, 0.194 1.4114 0.714, 0.1723 1.4075 0.6647, 0.2118 1.4075 0.6647, 0.1899 1.4075 0.714, 0.191 1.4075 0.7181, 0.1918 1.4075 0.7223, 0.1922 1.4075 0.7223, 0.1929 1.4075 0.7182, 0.194 1.4075 0.714, 0.0681 1.4114 0.6186, 0.036 1.4114 0.6186, 0.0681 1.4075 0.6186, 0.036 1.4075 0.6186, 0.036 1.4114 0.7367, 0.036 1.4075 0.7367, 0.0693 1.4114 0.7367, 0.0693 1.4075 0.7367, 0.1311 1.4114 0.6792, 0.1311 1.4075 0.6792, 0.1302 1.4075 0.6903, 0.1302 1.4114 0.6903, 0.127 1.4075 0.7019, 0.127 1.4114 0.7019, 0.1216 1.4075 0.7121, 0.1216 1.4114 0.7121, 0.1132 1.4075 0.7213, 0.1132 1.4114 0.7213, 0.1131 1.4075 0.7214, 0.1131 1.4114 0.7214, 0.1002 1.4075 0.7301, 0.1002 1.4114 0.7301, 0.0864 1.4075 0.7349, 0.0864 1.4114 0.7349, 0.0827 1.4075 0.6199, 0.0827 1.4114 0.6199, 0.0963 1.4075 0.624, 0.0963 1.4114 0.624, 0.1087 1.4075 0.6311, 0.1087 1.4114 0.6311, 0.1184 1.4075 0.6404, 0.1184 1.4114 0.6404, 0.1252 1.4075 0.651, 0.1252 1.4114 0.651, 0.1294 1.4075 0.6634, 0.1294 1.4114 0.6634, 0.1074 1.4114 0.7072, 0.1016 1.4114 0.7133, 0.093 1.4114 0.7189, 0.0833 1.4114 0.7223, 0.0693 1.4114 0.7238, 0.0519 1.4114 0.7238, 0.0519 1.4114 0.6316, 0.0686 1.4114 0.6316, 0.0811 1.4114 0.6327, 0.091 1.4114 0.6359, 0.0991 1.4114 0.6406, 0.1057 1.4114 0.6472, 0.1107 1.4114 0.6553, 0.1141 1.4114 0.6664, 0.1152 1.4114 0.6788, 0.1142 1.4114 0.6906, 0.1115 1.4114 0.6999, 0.0693 1.4075 0.7238, 0.0519 1.4075 0.7238, 0.0833 1.4075 0.7223, 0.093 1.4075 0.7189, 0.1016 1.4075 0.7133, 0.1074 1.4075 0.7072, 0.1115 1.4075 0.6999, 0.1142 1.4075 0.6906, 0.1152 1.4075 0.6788, 0.1141 1.4075 0.6664, 0.1107 1.4075 0.6553, 0.1057 1.4075 0.6472, 0.0991 1.4075 0.6406, 0.091 1.4075 0.6359, 0.0811 1.4075 0.6327, 0.0686 1.4075 0.6316, 0.0519 1.4075 0.6316, 0.013 1.4114 0.6316, 0.013 1.4114 0.6186, 0.013 1.4075 0.6316, 0.013 1.4075 0.6186, -0.0504 1.4114 0.6186, -0.0504 1.4075 0.6186, -0.0504 1.4114 0.7367, -0.0504 1.4075 0.7367, 0.0101 1.4114 0.7367, 0.0101 1.4075 0.7367, 0.0101 1.4114 0.7238, 0.0101 1.4075 0.7238, -0.0346 1.4114 0.7238, -0.0346 1.4075 0.7238, -0.0346 1.4114 0.6849, -0.0346 1.4075 0.6849, 0.0072 1.4114 0.6849, 0.0072 1.4075 0.6849, 0.0072 1.4114 0.6719, 0.0072 1.4075 0.6719, -0.0346 1.4114 0.6719, -0.0346 1.4075 0.6719, -0.0346 1.4114 0.6316, -0.0346 1.4075 0.6316, -0.0735 1.4114 0.6377, -0.0735 1.4114 0.6247, -0.0735 1.4075 0.6377, -0.0735 1.4075 0.6247, -0.086 1.4114 0.6196, -0.106 1.4114 0.6172, -0.106 1.4075 0.6172, -0.1027 1.4075 0.6172, -0.1027 1.4114 0.6172, -0.098 1.4075 0.6179, -0.086 1.4075 0.6196, -0.1613 1.4114 0.6755, -0.1613 1.4075 0.6755, -0.1602 1.4075 0.6618, -0.1602 1.4114 0.6618, -0.1566 1.4075 0.6493, -0.1566 1.4114 0.6493, -0.1503 1.4075 0.638, -0.1503 1.4114 0.638, -0.1415 1.4075 0.6287, -0.1415 1.4114 0.6287, -0.132 1.4075 0.6226, -0.132 1.4114 0.6226, -0.1205 1.4075 0.6187, -0.1205 1.4114 0.6187, -0.1129 1.4075 0.6179, -0.1013 1.4114 0.7382, -0.1013 1.4075 0.7382, -0.1131 1.4114 0.7372, -0.1101 1.4075 0.7375, -0.1131 1.4075 0.7372, -0.1263 1.4075 0.7334, -0.1263 1.4114 0.7334, -0.1375 1.4075 0.7269, -0.1375 1.4114 0.7269, -0.1482 1.4075 0.7167, -0.1482 1.4114 0.7167, -0.1551 1.4075 0.7056, -0.1551 1.4114 0.7056, -0.1596 1.4075 0.6922, -0.1596 1.4114 0.6922, -0.0908 1.4075 0.7375, -0.0871 1.4114 0.7372, -0.0871 1.4075 0.7372, -0.0735 1.4114 0.7335, -0.0735 1.4075 0.7335, -0.0735 1.4114 0.7177, -0.0735 1.4075 0.7177, -0.1011 1.4114 0.7252, -0.1011 1.4075 0.7252, -0.0868 1.4075 0.7233, -0.0868 1.4114 0.7233, -0.1455 1.4114 0.6764, -0.1455 1.4075 0.6764, -0.1449 1.4075 0.6856, -0.1449 1.4114 0.6856, -0.1418 1.4075 0.6983, -0.1418 1.4114 0.6983, -0.1369 1.4075 0.7074, -0.1369 1.4114 0.7074, -0.1298 1.4075 0.7152, -0.1298 1.4114 0.7152, -0.1216 1.4075 0.7207, -0.1216 1.4114 0.7207, -0.1127 1.4075 0.7239, -0.1127 1.4114 0.7239, -0.1038 1.4114 0.6301, -0.1038 1.4075 0.6301, -0.1148 1.4075 0.6314, -0.1148 1.4114 0.6314, -0.1234 1.4075 0.6346, -0.1234 1.4114 0.6346, -0.1306 1.4075 0.6394, -0.1306 1.4114 0.6394, -0.1362 1.4075 0.6453, -0.1362 1.4114 0.6453, -0.1411 1.4075 0.6535, -0.1411 1.4114 0.6535, -0.1443 1.4075 0.6636, -0.1443 1.4114 0.6636, -0.0756 1.4075 0.6365, -0.0756 1.4114 0.6365, -0.0881 1.4075 0.6319, -0.0881 1.4114 0.6319, -0.1714 1.4114 0.6316, -0.1714 1.4114 0.6186, -0.1714 1.4075 0.6316, -0.1714 1.4075 0.6186, -0.2319 1.4114 0.6186, -0.2319 1.4075 0.6186, -0.2319 1.4114 0.7367, -0.2319 1.4075 0.7367, -0.2161 1.4114 0.7367, -0.2161 1.4075 0.7367, -0.2161 1.4114 0.6316, -0.2161 1.4075 0.6316
            ]
        }
        coordIndex [
            0,1,2,-1,2,1,3,-1,1,4,3,-1,3,4,5,-1,4,6,5,-1,5,6,7,-1,6,8,7,-1,7,8,9,-1,8,10,9,-1,9,10,11,-1,10,12,11,-1,11,12,13,-1,12,14,13,-1,13,14,15,-1,14,0,15,-1,15,0,2,-1,16,17,14,-1,12,10,8,-1,17,18,14,-1,14,18,19,-1,14,19,0,-1,0,19,20,-1,0,20,21,-1,14,12,16,-1,16,12,8,-1,16,8,22,-1,22,8,6,-1,21,23,0,-1,0,23,22,-1,0,22,1,-1,1,22,6,-1,1,6,4,-1,16,22,24,-1,24,22,25,-1,17,16,26,-1,26,16,24,-1,17,26,27,-1,17,27,18,-1,18,27,28,-1,18,28,19,-1,20,19,29,-1,29,19,28,-1,20,29,30,-1,20,30,21,-1,21,30,31,-1,21,31,23,-1,22,23,25,-1,25,23,31,-1,32,33,34,-1,34,33,35,-1,33,36,35,-1,35,36,37,-1,36,38,37,-1,37,38,39,-1,40,41,42,-1,40,42,43,-1,43,42,44,-1,43,44,45,-1,45,44,46,-1,45,46,47,-1,47,46,48,-1,47,48,49,-1,49,48,50,-1,49,50,51,-1,51,50,52,-1,51,52,53,-1,53,52,54,-1,53,54,55,-1,55,54,39,-1,55,39,38,-1,32,34,56,-1,32,56,57,-1,57,56,58,-1,57,58,59,-1,59,58,60,-1,59,60,61,-1,61,60,62,-1,61,62,63,-1,63,62,64,-1,63,64,65,-1,65,64,66,-1,65,66,67,-1,67,66,41,-1,67,41,40,-1,45,47,68,-1,68,47,49,-1,68,49,69,-1,69,49,51,-1,69,51,70,-1,70,51,53,-1,70,53,71,-1,71,53,55,-1,71,55,72,-1,72,55,38,-1,72,38,73,-1,73,38,36,-1,73,36,74,-1,74,36,33,-1,74,33,75,-1,75,33,32,-1,75,32,76,-1,76,32,57,-1,76,57,77,-1,77,57,59,-1,77,59,78,-1,78,59,61,-1,78,61,79,-1,79,61,63,-1,79,63,80,-1,80,63,65,-1,80,65,81,-1,81,65,67,-1,81,67,82,-1,82,67,40,-1,82,40,83,-1,83,40,43,-1,83,43,84,-1,84,43,45,-1,84,45,68,-1,72,73,85,-1,85,73,86,-1,72,85,87,-1,72,87,71,-1,71,87,88,-1,71,88,70,-1,70,88,89,-1,70,89,69,-1,69,89,90,-1,69,90,68,-1,68,90,91,-1,68,91,84,-1,84,91,92,-1,84,92,83,-1,83,92,93,-1,83,93,82,-1,82,93,94,-1,82,94,81,-1,81,94,95,-1,81,95,80,-1,80,95,96,-1,80,96,79,-1,79,96,97,-1,79,97,78,-1,78,97,98,-1,78,98,77,-1,77,98,99,-1,77,99,76,-1,76,99,100,-1,76,100,75,-1,74,75,101,-1,101,75,100,-1,73,74,86,-1,86,74,101,-1,102,103,104,-1,104,103,105,-1,103,106,105,-1,105,106,107,-1,106,108,107,-1,107,108,109,-1,108,110,109,-1,109,110,111,-1,110,112,111,-1,111,112,113,-1,112,114,113,-1,113,114,115,-1,114,116,115,-1,115,116,117,-1,116,118,117,-1,117,118,119,-1,118,120,119,-1,119,120,121,-1,120,122,121,-1,121,122,123,-1,122,124,123,-1,123,124,125,-1,124,102,125,-1,125,102,104,-1,106,103,102,-1,102,124,106,-1,106,124,122,-1,106,122,108,-1,112,110,114,-1,114,110,108,-1,114,108,116,-1,116,108,122,-1,116,122,118,-1,118,122,120,-1,126,127,128,-1,128,127,129,-1,129,127,130,-1,131,132,133,-1,131,133,134,-1,134,133,135,-1,134,135,130,-1,130,135,136,-1,130,136,129,-1,137,138,139,-1,137,139,140,-1,140,139,141,-1,140,141,142,-1,142,141,143,-1,142,143,144,-1,144,143,145,-1,144,145,146,-1,146,145,147,-1,146,147,148,-1,148,147,149,-1,148,149,150,-1,150,149,131,-1,131,149,151,-1,131,151,132,-1,152,153,154,-1,154,153,155,-1,155,156,154,-1,154,156,157,-1,154,157,158,-1,158,157,159,-1,158,159,160,-1,160,159,161,-1,160,161,162,-1,162,161,163,-1,162,163,164,-1,164,163,165,-1,164,165,166,-1,166,165,138,-1,166,138,137,-1,153,152,167,-1,167,152,168,-1,167,168,169,-1,169,168,170,-1,169,170,171,-1,170,172,171,-1,171,172,173,-1,174,175,176,-1,174,176,177,-1,177,176,173,-1,177,173,172,-1,178,179,180,-1,178,180,181,-1,181,180,182,-1,181,182,183,-1,183,182,184,-1,183,184,185,-1,185,184,186,-1,185,186,187,-1,187,186,188,-1,187,188,189,-1,189,188,190,-1,189,190,191,-1,191,190,175,-1,191,175,174,-1,192,193,194,-1,192,194,195,-1,195,194,196,-1,195,196,197,-1,197,196,198,-1,197,198,199,-1,199,198,200,-1,199,200,201,-1,201,200,202,-1,201,202,203,-1,203,202,204,-1,203,204,205,-1,205,204,179,-1,205,179,178,-1,126,128,206,-1,126,206,207,-1,207,206,208,-1,207,208,209,-1,209,208,193,-1,209,193,192,-1,195,131,192,-1,192,131,134,-1,192,134,209,-1,209,134,130,-1,209,130,207,-1,207,130,127,-1,207,127,126,-1,172,170,177,-1,177,170,168,-1,177,168,174,-1,174,168,152,-1,174,152,191,-1,191,152,154,-1,191,154,189,-1,189,154,158,-1,189,158,187,-1,187,158,160,-1,187,160,185,-1,185,160,162,-1,185,162,183,-1,183,162,164,-1,183,164,181,-1,181,164,166,-1,181,166,178,-1,178,166,137,-1,178,137,205,-1,205,137,140,-1,205,140,203,-1,203,140,142,-1,203,142,201,-1,201,142,144,-1,201,144,199,-1,199,144,146,-1,199,146,197,-1,197,146,148,-1,197,148,195,-1,195,148,150,-1,195,150,131,-1,210,211,212,-1,212,211,213,-1,211,214,213,-1,213,214,215,-1,214,216,215,-1,215,216,217,-1,216,218,217,-1,217,218,219,-1,218,220,219,-1,219,220,221,-1,220,210,221,-1,221,210,212,-1,218,216,220,-1,220,216,214,-1,220,214,210,-1,210,214,211,-1,
        ]
    }
}
Shape{
    appearance Appearance {
        material  Material {
            diffuseColor 1.0 1.0 1.0
            specularColor 0.30196078431372547 0.30196078431372547 0.30196078431372547
            ambientIntensity 1.0
            transparency 0.0
            shininess 0.5
        }
    }
    geometry IndexedFaceSet {
        ccw TRUE
        solid FALSE
        coord DEF co Coordinate {
            point [
                0.1723 1.4075 0.6647, 0.2118 1.4075 0.6647, 0.1899 1.4075 0.714, 0.194 1.4075 0.714, 0.191 1.4075 0.7181, 0.1929 1.4075 0.7182, 0.1918 1.4075 0.7223, 0.1922 1.4075 0.7223, 0.0519 1.4075 0.7238, 0.0519 1.4075 0.6316, 0.0693 1.4075 0.7238, 0.0686 1.4075 0.6316, 0.0811 1.4075 0.6327, 0.1152 1.4075 0.6788, 0.1142 1.4075 0.6906, 0.1115 1.4075 0.6999, 0.0833 1.4075 0.7223, 0.091 1.4075 0.6359, 0.0991 1.4075 0.6406, 0.1057 1.4075 0.6472, 0.1107 1.4075 0.6553, 0.1141 1.4075 0.6664, 0.1074 1.4075 0.7072, 0.1016 1.4075 0.7133, 0.093 1.4075 0.7189
            ]
        }
        coordIndex [
            0,1,2,-1,2,1,3,-1,2,3,4,-1,4,3,5,-1,4,5,6,-1,6,5,7,-1,8,9,10,-1,10,9,11,-1,10,11,12,-1,13,14,10,-1,10,14,15,-1,10,15,16,-1,12,17,10,-1,10,17,18,-1,10,18,19,-1,19,20,10,-1,10,20,21,-1,10,21,13,-1,22,23,15,-1,15,23,24,-1,15,24,16,-1,
        ]
    }
}
Shape{
    appearance Appearance {
        material  Material {
            diffuseColor 0.7686274509803922 0.7686274509803922 0.7686274509803922
            specularColor 0.615686274509804 0.615686274509804 0.615686274509804
            ambientIntensity 0.7686
            transparency 0.0
            shininess 0.5
        }
    }
    geometry IndexedFaceSet {
        ccw TRUE
        solid FALSE
        coord DEF co Coordinate {
            point [
                -0.2953 1.7815 1.122, -0.4921 1.7815 1.122, -0.2953 1.7815 -1.2205, -0.4921 1.7815 -1.2205, -0.5118 1.8012 1.122, -0.5118 1.998 1.122, -0.5118 1.8012 -1.2205, -0.5118 1.998 -1.2205, -0.2953 2.0177 -1.2205, -0.4921 2.0177 -1.2205, -0.2953 2.0177 1.122, -0.4921 2.0177 1.122, -0.2756 1.8012 -1.2205, -0.2756 1.998 -1.2205, -0.2756 1.8012 1.122, -0.2756 1.998 1.122, -0.4696 1.9565 -1.378, -0.4506 1.9755 -1.378, -0.3178 1.9565 -1.378, -0.3368 1.9755 -1.378, -0.4696 1.8427 -1.378, -0.3368 1.8237 -1.378, -0.4506 1.8237 -1.378, -0.469 1.9615 -1.378, -0.458 1.9741 -1.378, -0.4556 1.9749 -1.378, -0.3294 1.8251 -1.378, -0.3318 1.8243 -1.378, -0.3178 1.8427 -1.378, -0.3203 1.9661 -1.378, -0.3192 1.9639 -1.378, -0.3272 1.973 -1.378, -0.3294 1.9741 -1.378, -0.3318 1.9749 -1.378, -0.3184 1.9615 -1.378, -0.4671 1.8331 -1.378, -0.4682 1.8353 -1.378, -0.4602 1.8262 -1.378, -0.458 1.8251 -1.378, -0.4556 1.8243 -1.378, -0.469 1.8377 -1.378, -0.4682 1.9639 -1.378, -0.4671 1.9661 -1.378, -0.4602 1.973 -1.378, -0.4657 1.9682 -1.378, -0.4623 1.9716 -1.378, -0.4641 1.97 -1.378, -0.3217 1.9682 -1.378, -0.3251 1.9716 -1.378, -0.3233 1.97 -1.378, -0.3184 1.8377 -1.378, -0.3192 1.8353 -1.378, -0.3272 1.8262 -1.378, -0.3203 1.8331 -1.378, -0.3251 1.8276 -1.378, -0.3217 1.831 -1.378, -0.3233 1.8292 -1.378, -0.4657 1.831 -1.378, -0.4623 1.8276 -1.378, -0.4641 1.8292 -1.378, -0.2953 1.7776 1.1466, -0.4921 1.7776 1.1466, -0.2953 1.7793 1.1406, -0.4921 1.7793 1.1406, -0.2953 1.78 1.1344, -0.4921 1.78 1.1344, -0.5118 1.7776 1.4077, -0.5118 1.824 1.3913, -0.5118 1.7776 1.186, -0.5118 1.873 1.3633, -0.5118 1.9926 1.1782, -0.5118 1.7984 1.1452, -0.5118 1.9767 1.2323, -0.5118 1.7903 1.167, -0.5118 1.9507 1.2823, -0.5118 1.9157 1.3266, -0.2953 2.012 1.1819, -0.4921 2.012 1.1819, -0.2953 2.0093 1.1911, -0.4921 2.0093 1.1911, -0.2953 1.9949 1.2396, -0.4921 1.9949 1.2396, -0.2953 1.9861 1.2567, -0.4921 1.9861 1.2567, -0.2953 1.9673 1.293, -0.4921 1.9673 1.293, -0.2953 1.9494 1.3156, -0.4921 1.9494 1.3156, -0.2953 1.9299 1.3402, -0.4921 1.9299 1.3402, -0.2953 1.9008 1.3653, -0.4921 1.9008 1.3653, -0.2953 1.8843 1.3794, -0.4921 1.8843 1.3794, -0.2953 1.8426 1.4032, -0.4921 1.8426 1.4032, -0.2953 1.8321 1.4092, -0.4921 1.8321 1.4092, -0.2953 1.7776 1.428, -0.4921 1.7776 1.428, -0.2756 1.824 1.3913, -0.2756 1.7776 1.4077, -0.2756 1.7776 1.186, -0.2756 1.7984 1.1452, -0.2756 1.9926 1.1782, -0.2756 1.7903 1.167, -0.2756 1.873 1.3633, -0.2756 1.9767 1.2323, -0.2756 1.9507 1.2823, -0.2756 1.9157 1.3266, -0.4696 -0.1476 1.3758, -0.4696 -0.1476 1.262, -0.4506 -0.1476 1.3948, -0.4506 -0.1476 1.243, -0.3368 -0.1476 1.243, -0.3178 -0.1476 1.262, -0.4602 -0.1476 1.2455, -0.458 -0.1476 1.2444, -0.4682 -0.1476 1.2546, -0.4556 -0.1476 1.2436, -0.3178 -0.1476 1.3758, -0.3368 -0.1476 1.3948, -0.3318 -0.1476 1.2436, -0.3192 -0.1476 1.2546, -0.3184 -0.1476 1.257, -0.3294 -0.1476 1.2444, -0.3272 -0.1476 1.2455, -0.3203 -0.1476 1.2524, -0.469 -0.1476 1.257, -0.4556 -0.1476 1.3942, -0.4682 -0.1476 1.3832, -0.469 -0.1476 1.3808, -0.458 -0.1476 1.3934, -0.4602 -0.1476 1.3923, -0.4671 -0.1476 1.3854, -0.3184 -0.1476 1.3808, -0.3294 -0.1476 1.3934, -0.3318 -0.1476 1.3942, -0.3217 -0.1476 1.2503, -0.3251 -0.1476 1.2469, -0.3233 -0.1476 1.2485, -0.4671 -0.1476 1.2524, -0.4657 -0.1476 1.2503, -0.4623 -0.1476 1.2469, -0.4641 -0.1476 1.2485, -0.4657 -0.1476 1.3875, -0.4623 -0.1476 1.3909, -0.4641 -0.1476 1.3893, -0.3192 -0.1476 1.3832, -0.3203 -0.1476 1.3854, -0.3272 -0.1476 1.3923, -0.3217 -0.1476 1.3875, -0.3251 -0.1476 1.3909, -0.3233 -0.1476 1.3893, -0.2756 1.4075 1.2205, -0.2756 1.4075 1.4173, -0.2756 0.0098 1.2205, -0.2756 0.0098 1.4173, -0.2953 1.4075 1.437, -0.4921 1.4075 1.437, -0.2953 0.0098 1.437, -0.4921 0.0098 1.437, -0.5118 1.4075 1.4173, -0.5118 1.4075 1.2205, -0.5118 0.0098 1.4173, -0.5118 0.0098 1.2205, -0.2953 0.0098 1.2008, -0.4921 0.0098 1.2008, -0.2953 1.4075 1.2008, -0.4921 1.4075 1.2008, -0.4928 1.7815 -1.2205, -0.2946 1.7815 -1.2205, -0.2756 1.8005 -1.2205, -0.2756 1.9987 -1.2205, -0.5118 1.9987 -1.2205, -0.5118 1.8005 -1.2205, -0.2946 2.0177 -1.2205, -0.4928 2.0177 -1.2205, -0.4928 0.0098 1.437, -0.2946 0.0098 1.437, -0.5118 0.0098 1.2198, -0.5118 0.0098 1.418, -0.2756 0.0098 1.418, -0.2756 0.0098 1.2198, -0.2946 0.0098 1.2008, -0.4928 0.0098 1.2008, -0.2902 0.0093 1.2015, -0.2902 1.4075 1.2015, -0.2898 0.0093 1.2016, -0.2854 1.4075 1.2034, -0.2854 0.009 1.2034, -0.2852 0.0089 1.2035, -0.2814 1.4075 1.2066, -0.2814 0.0088 1.2066, -0.2783 0.0089 1.2104, -0.2782 1.4075 1.2106, -0.2783 0.009 1.2106, -0.2764 0.0093 1.215, -0.2763 1.4075 1.2154, -0.2763 0.0093 1.2154, -0.5111 0.0093 1.2154, -0.5111 1.4075 1.2154, -0.511 0.0093 1.215, -0.5092 1.4075 1.2106, -0.5091 0.009 1.2106, -0.5091 0.0089 1.2104, -0.506 1.4075 1.2066, -0.506 0.0088 1.2066, -0.5022 0.0089 1.2035, -0.502 1.4075 1.2034, -0.502 0.009 1.2034, -0.4976 0.0093 1.2016, -0.4972 1.4075 1.2015, -0.4972 0.0093 1.2015, -0.2763 0.0093 1.4224, -0.2763 1.4075 1.4224, -0.2764 0.0093 1.4228, -0.2782 1.4075 1.4272, -0.2783 0.009 1.4272, -0.2783 0.0089 1.4274, -0.2814 1.4075 1.4312, -0.2814 0.0088 1.4312, -0.2852 0.0089 1.4343, -0.2854 1.4075 1.4344, -0.2854 0.009 1.4343, -0.2898 0.0093 1.4362, -0.2902 1.4075 1.4363, -0.2902 0.0093 1.4363, -0.4972 0.0093 1.4363, -0.4972 1.4075 1.4363, -0.4976 0.0093 1.4362, -0.502 1.4075 1.4344, -0.502 0.009 1.4343, -0.5022 0.0089 1.4343, -0.506 1.4075 1.4312, -0.506 0.0088 1.4312, -0.5091 0.0089 1.4274, -0.5092 1.4075 1.4272, -0.5091 0.009 1.4272, -0.511 0.0093 1.4228, -0.5111 1.4075 1.4224, -0.5111 0.0093 1.4224, -0.2902 2.017 1.122, -0.2762 1.7776 1.4126, -0.2768 1.7776 1.4146, -0.2763 1.7776 1.4129, -0.2763 1.8261 1.3959, -0.2789 1.7776 1.4189, -0.2783 1.7776 1.4178, -0.2782 1.828 1.4003, -0.2835 1.7776 1.424, -0.2814 1.7776 1.422, -0.2814 1.8297 1.404, -0.2802 1.7776 1.4207, -0.2895 1.7776 1.4271, -0.2853 1.7776 1.4252, -0.2854 1.831 1.4068, -0.2902 1.8318 1.4086, -0.2902 1.7776 1.4273, -0.2915 1.7776 1.4276, -0.2902 2.0113 1.1818, -0.2902 1.9943 1.2394, -0.2902 1.9667 1.2927, -0.2902 1.9294 1.3397, -0.2902 1.8839 1.3789, -0.2854 1.8828 1.3773, -0.2854 1.928 1.3384, -0.2854 1.965 1.2916, -0.2854 1.9925 1.2386, -0.2854 2.0094 1.1814, -0.2854 2.0151 1.122, -0.2814 1.881 1.3747, -0.2814 1.9258 1.3362, -0.2814 1.9624 1.2899, -0.2814 1.9896 1.2375, -0.2814 2.0063 1.1808, -0.2814 2.0119 1.122, -0.2782 1.8786 1.3714, -0.2782 1.9228 1.3334, -0.2782 1.959 1.2877, -0.2782 1.9858 1.2359, -0.2782 2.0023 1.1801, -0.2782 2.0079 1.122, -0.2763 1.8759 1.3675, -0.2763 1.9194 1.3301, -0.2763 1.955 1.2851, -0.2763 1.9814 1.2342, -0.2763 1.9976 1.1792, -0.2763 2.0031 1.122, -0.2902 2.017 -1.221, -0.2898 2.0169 -1.221, -0.2854 2.0151 -1.2214, -0.2852 2.015 -1.2214, -0.2814 2.0119 -1.2215, -0.2783 2.0081 -1.2214, -0.2783 2.0079 -1.2214, -0.2764 2.0035 -1.221, -0.2763 2.0031 -1.221, -0.5113 1.7942 1.1441, -0.5113 1.7864 1.165, -0.5109 1.7776 1.1789, -0.5099 1.7827 1.1631, -0.5101 1.7776 1.1728, -0.5075 1.7794 1.1614, -0.5073 1.7776 1.1649, -0.5089 1.7776 1.1686, -0.5003 1.7776 1.1518, -0.504 1.7776 1.1574, -0.5044 1.7835 1.1416, -0.5043 1.7776 1.1581, -0.5054 1.7776 1.1606, -0.4927 1.7776 1.1467, -0.4942 1.7776 1.147, -0.4965 1.7798 1.1407, -0.4976 1.7776 1.149, -0.5007 1.7812 1.141, -0.4965 1.7776 1.1482, -0.4956 1.7776 1.1476, -0.5113 1.7968 1.122, -0.5111 1.7961 1.122, -0.5099 1.7901 1.1432, -0.5099 1.7926 1.122, -0.5091 1.7914 1.122, -0.5075 1.7865 1.1423, -0.5075 1.7889 1.122, -0.506 1.7873 1.122, -0.5044 1.7858 1.122, -0.5019 1.7842 1.122, -0.5007 1.7834 1.122, -0.4972 1.7822 1.122, -0.4965 1.782 1.122, -0.4972 1.7822 -1.221, -0.4976 1.7823 -1.221, -0.502 1.7842 -1.2214, -0.5022 1.7842 -1.2214, -0.506 1.7873 -1.2215, -0.5091 1.7911 -1.2214, -0.5091 1.7913 -1.2214, -0.511 1.7957 -1.221, -0.5111 1.7961 -1.221, -0.2855 1.7842 1.122, -0.283 1.7858 1.122, -0.283 1.7835 1.1416, -0.2848 1.7776 1.1551, -0.2862 1.7776 1.153, -0.2867 1.7812 1.141, -0.2909 1.7798 1.1407, -0.2928 1.7776 1.1471, -0.2937 1.7776 1.1468, -0.29 1.7776 1.1489, -0.2906 1.7776 1.1484, -0.2909 1.7776 1.1482, -0.2801 1.7776 1.1649, -0.2799 1.7794 1.1614, -0.2788 1.7776 1.1678, -0.2775 1.7827 1.1631, -0.2777 1.7776 1.1712, -0.2761 1.7864 1.165, -0.2765 1.7776 1.1789, -0.2756 1.7776 1.184, -0.2761 1.7968 1.122, -0.2761 1.7942 1.1441, -0.2763 1.7961 1.122, -0.2775 1.7901 1.1432, -0.2814 1.7873 1.122, -0.2799 1.7889 1.122, -0.2799 1.7865 1.1423, -0.2783 1.7914 1.122, -0.2775 1.7926 1.122, -0.2833 1.7776 1.1583, -0.2822 1.7776 1.1606, -0.2867 1.7834 1.122, -0.2902 1.7822 1.122, -0.2909 1.782 1.122, -0.2763 1.7961 -1.221, -0.2764 1.7957 -1.221, -0.2783 1.7913 -1.2214, -0.2783 1.7911 -1.2214, -0.2814 1.7873 -1.2215, -0.2852 1.7842 -1.2214, -0.2854 1.7842 -1.2214, -0.2898 1.7823 -1.221, -0.2902 1.7822 -1.221, -0.4966 1.7776 1.4275, -0.4985 1.7776 1.4269, -0.4972 1.7776 1.4273, -0.4972 1.8318 1.4086, -0.5042 1.7776 1.4238, -0.5026 1.7776 1.4249, -0.502 1.831 1.4068, -0.5085 1.7776 1.4189, -0.5075 1.7776 1.4204, -0.506 1.8297 1.404, -0.5059 1.7776 1.422, -0.5107 1.7776 1.4145, -0.5091 1.7776 1.4178, -0.5092 1.828 1.4003, -0.5112 1.7776 1.4127, -0.5111 1.7776 1.413, -0.5111 1.8261 1.3959, -0.4972 1.8839 1.3789, -0.4972 1.9667 1.2927, -0.4972 1.9294 1.3397, -0.4972 1.9943 1.2394, -0.4972 2.0113 1.1818, -0.4972 2.017 1.122, -0.502 1.8828 1.3773, -0.502 1.928 1.3384, -0.502 1.965 1.2916, -0.502 1.9925 1.2386, -0.502 2.0094 1.1814, -0.502 2.0151 1.122, -0.506 1.881 1.3747, -0.506 1.9258 1.3362, -0.506 1.9624 1.2899, -0.506 1.9896 1.2375, -0.506 2.0063 1.1808, -0.506 2.0119 1.122, -0.5092 1.8786 1.3714, -0.5092 1.9228 1.3334, -0.5092 1.959 1.2877, -0.5092 1.9858 1.2359, -0.5092 2.0023 1.1801, -0.5092 2.0079 1.122, -0.5111 1.8759 1.3675, -0.5111 1.9194 1.3301, -0.5111 1.955 1.2851, -0.5111 1.9814 1.2342, -0.5111 1.9976 1.1792, -0.5111 2.0031 1.122, -0.5111 2.0031 -1.221, -0.511 2.0035 -1.221, -0.5091 2.0079 -1.2214, -0.5091 2.0081 -1.2214, -0.506 2.0119 -1.2215, -0.5022 2.015 -1.2214, -0.502 2.0151 -1.2214, -0.4976 2.0169 -1.221, -0.4972 2.017 -1.221
            ]
        }
        coordIndex [
            0,1,2,-1,2,1,3,-1,4,5,6,-1,6,5,7,-1,8,9,10,-1,10,9,11,-1,12,13,14,-1,14,13,15,-1,16,17,18,-1,18,17,19,-1,20,21,22,-1,23,24,16,-1,16,24,25,-1,16,25,17,-1,26,27,28,-1,28,27,21,-1,28,21,18,-1,18,21,20,-1,18,20,16,-1,29,30,31,-1,31,30,32,-1,19,33,18,-1,18,33,32,-1,18,32,34,-1,34,32,30,-1,35,36,37,-1,37,36,38,-1,22,39,20,-1,20,39,38,-1,20,38,40,-1,40,38,36,-1,23,41,24,-1,24,41,42,-1,24,42,43,-1,43,42,44,-1,43,44,45,-1,45,44,46,-1,29,31,47,-1,47,31,48,-1,47,48,49,-1,28,50,26,-1,26,50,51,-1,26,51,52,-1,52,51,53,-1,52,53,54,-1,54,53,55,-1,54,55,56,-1,35,37,57,-1,57,37,58,-1,57,58,59,-1,60,61,62,-1,62,61,63,-1,62,63,64,-1,64,63,65,-1,64,65,0,-1,0,65,1,-1,66,67,68,-1,68,67,69,-1,5,4,70,-1,70,4,71,-1,70,71,72,-1,72,71,73,-1,72,73,74,-1,74,73,68,-1,74,68,75,-1,75,68,69,-1,10,11,76,-1,76,11,77,-1,76,77,78,-1,78,77,79,-1,78,79,80,-1,80,79,81,-1,80,81,82,-1,82,81,83,-1,82,83,84,-1,84,83,85,-1,84,85,86,-1,86,85,87,-1,86,87,88,-1,88,87,89,-1,88,89,90,-1,90,89,91,-1,90,91,92,-1,92,91,93,-1,92,93,94,-1,94,93,95,-1,94,95,96,-1,96,95,97,-1,96,97,98,-1,98,97,99,-1,100,101,102,-1,14,15,103,-1,103,15,104,-1,103,104,105,-1,100,102,106,-1,104,107,105,-1,105,107,108,-1,105,108,102,-1,102,108,109,-1,102,109,106,-1,110,111,112,-1,113,114,115,-1,116,117,118,-1,119,113,111,-1,111,113,115,-1,111,115,112,-1,112,115,120,-1,112,120,121,-1,122,123,114,-1,114,123,124,-1,114,124,115,-1,122,125,123,-1,123,125,126,-1,123,126,127,-1,119,111,117,-1,117,111,128,-1,117,128,118,-1,129,130,112,-1,112,130,131,-1,112,131,110,-1,129,132,130,-1,130,132,133,-1,130,133,134,-1,135,136,120,-1,120,136,137,-1,120,137,121,-1,127,126,138,-1,138,126,139,-1,138,139,140,-1,118,141,116,-1,116,141,142,-1,116,142,143,-1,143,142,144,-1,134,133,145,-1,145,133,146,-1,145,146,147,-1,135,148,136,-1,136,148,149,-1,136,149,150,-1,150,149,151,-1,150,151,152,-1,152,151,153,-1,154,155,156,-1,156,155,157,-1,158,159,160,-1,160,159,161,-1,162,163,164,-1,164,163,165,-1,166,167,168,-1,168,167,169,-1,3,170,22,-1,3,22,2,-1,2,22,21,-1,2,21,171,-1,12,172,28,-1,12,28,13,-1,13,28,18,-1,13,18,173,-1,7,174,16,-1,7,16,6,-1,6,16,20,-1,6,20,175,-1,8,176,19,-1,8,19,9,-1,9,19,17,-1,9,17,177,-1,161,178,112,-1,161,112,160,-1,160,112,121,-1,160,121,179,-1,165,180,111,-1,165,111,164,-1,164,111,110,-1,164,110,181,-1,157,182,120,-1,157,120,156,-1,156,120,115,-1,156,115,183,-1,166,184,114,-1,166,114,167,-1,167,114,113,-1,167,113,185,-1,184,166,168,-1,184,168,186,-1,186,168,187,-1,186,187,188,-1,188,187,189,-1,188,189,190,-1,190,189,191,-1,191,189,192,-1,191,192,193,-1,193,192,194,-1,194,192,195,-1,194,195,196,-1,196,195,197,-1,197,195,198,-1,197,198,199,-1,154,156,198,-1,198,156,183,-1,198,183,199,-1,139,126,191,-1,191,126,190,-1,190,126,125,-1,190,125,188,-1,188,125,122,-1,188,122,186,-1,186,122,114,-1,186,114,184,-1,139,191,140,-1,140,191,193,-1,140,193,138,-1,138,193,194,-1,138,194,127,-1,197,124,123,-1,127,194,123,-1,123,194,196,-1,123,196,197,-1,124,197,115,-1,115,197,199,-1,115,199,183,-1,180,165,163,-1,180,163,200,-1,200,163,201,-1,200,201,202,-1,202,201,203,-1,202,203,204,-1,204,203,205,-1,205,203,206,-1,205,206,207,-1,207,206,208,-1,208,206,209,-1,208,209,210,-1,210,209,211,-1,211,209,212,-1,211,212,213,-1,169,167,212,-1,212,167,185,-1,212,185,213,-1,213,185,113,-1,213,113,211,-1,113,119,211,-1,211,119,117,-1,211,117,210,-1,210,117,208,-1,117,116,208,-1,208,116,143,-1,208,143,207,-1,207,143,144,-1,207,144,205,-1,144,142,205,-1,205,142,141,-1,205,141,204,-1,204,141,118,-1,204,118,202,-1,202,118,128,-1,202,128,200,-1,200,128,111,-1,200,111,180,-1,182,157,155,-1,182,155,214,-1,214,155,215,-1,214,215,216,-1,216,215,217,-1,216,217,218,-1,218,217,219,-1,219,217,220,-1,219,220,221,-1,221,220,222,-1,222,220,223,-1,222,223,224,-1,224,223,225,-1,225,223,226,-1,225,226,227,-1,158,160,226,-1,226,160,179,-1,226,179,227,-1,151,149,219,-1,219,149,218,-1,218,149,148,-1,218,148,216,-1,216,148,135,-1,216,135,214,-1,214,135,120,-1,214,120,182,-1,151,219,153,-1,153,219,221,-1,153,221,152,-1,152,221,222,-1,152,222,150,-1,225,137,136,-1,150,222,136,-1,136,222,224,-1,136,224,225,-1,137,225,121,-1,121,225,227,-1,121,227,179,-1,178,161,159,-1,178,159,228,-1,228,159,229,-1,228,229,230,-1,230,229,231,-1,230,231,232,-1,232,231,233,-1,233,231,234,-1,233,234,235,-1,235,234,236,-1,236,234,237,-1,236,237,238,-1,238,237,239,-1,239,237,240,-1,239,240,241,-1,162,164,240,-1,240,164,181,-1,240,181,241,-1,241,181,110,-1,241,110,239,-1,110,131,239,-1,239,131,130,-1,239,130,238,-1,238,130,236,-1,130,134,236,-1,236,134,145,-1,236,145,235,-1,235,145,147,-1,235,147,233,-1,147,146,233,-1,233,146,133,-1,233,133,232,-1,232,133,132,-1,232,132,230,-1,230,132,129,-1,230,129,228,-1,228,129,112,-1,228,112,178,-1,242,10,76,-1,243,101,100,-1,244,245,246,-1,246,245,243,-1,247,248,249,-1,249,248,244,-1,250,251,252,-1,252,251,253,-1,252,253,247,-1,254,255,256,-1,256,255,250,-1,257,258,254,-1,258,257,259,-1,259,257,96,-1,259,96,98,-1,242,76,260,-1,260,76,78,-1,260,78,261,-1,78,80,261,-1,261,80,82,-1,261,82,262,-1,82,84,262,-1,262,84,86,-1,262,86,263,-1,86,88,263,-1,263,88,90,-1,263,90,264,-1,264,90,92,-1,264,92,257,-1,257,92,94,-1,257,94,96,-1,254,256,257,-1,257,256,265,-1,257,265,264,-1,264,265,266,-1,264,266,263,-1,263,266,267,-1,263,267,262,-1,262,267,268,-1,262,268,261,-1,261,268,269,-1,261,269,260,-1,260,269,270,-1,260,270,242,-1,250,252,256,-1,256,252,271,-1,256,271,265,-1,265,271,272,-1,265,272,266,-1,266,272,273,-1,266,273,267,-1,267,273,274,-1,267,274,268,-1,268,274,275,-1,268,275,269,-1,269,275,276,-1,269,276,270,-1,247,249,252,-1,252,249,277,-1,252,277,271,-1,271,277,278,-1,271,278,272,-1,272,278,279,-1,272,279,273,-1,273,279,280,-1,273,280,274,-1,274,280,281,-1,274,281,275,-1,275,281,282,-1,275,282,276,-1,244,246,249,-1,249,246,283,-1,249,283,277,-1,277,283,284,-1,277,284,278,-1,278,284,285,-1,278,285,279,-1,279,285,286,-1,279,286,280,-1,280,286,287,-1,280,287,281,-1,281,287,288,-1,281,288,282,-1,243,100,246,-1,246,100,106,-1,246,106,283,-1,283,106,109,-1,283,109,284,-1,284,109,108,-1,284,108,285,-1,285,108,107,-1,285,107,286,-1,286,107,104,-1,286,104,287,-1,287,104,15,-1,287,15,288,-1,176,8,10,-1,176,10,289,-1,289,10,242,-1,289,242,290,-1,290,242,270,-1,290,270,291,-1,291,270,292,-1,292,270,276,-1,292,276,293,-1,293,276,294,-1,294,276,282,-1,294,282,295,-1,295,282,296,-1,296,282,288,-1,296,288,297,-1,15,13,288,-1,288,13,173,-1,288,173,297,-1,48,31,292,-1,292,31,291,-1,291,31,32,-1,291,32,290,-1,290,32,33,-1,290,33,289,-1,289,33,19,-1,289,19,176,-1,48,292,49,-1,49,292,293,-1,49,293,47,-1,47,293,294,-1,47,294,29,-1,296,34,30,-1,29,294,30,-1,30,294,295,-1,30,295,296,-1,34,296,18,-1,18,296,297,-1,18,297,173,-1,298,71,4,-1,68,73,299,-1,68,299,300,-1,300,299,301,-1,300,301,302,-1,303,304,301,-1,301,304,305,-1,301,305,302,-1,306,307,308,-1,308,307,309,-1,308,309,303,-1,303,309,310,-1,303,310,304,-1,311,312,313,-1,314,315,316,-1,316,315,313,-1,316,313,317,-1,317,313,312,-1,4,318,298,-1,298,318,319,-1,298,319,320,-1,319,321,320,-1,320,321,322,-1,320,322,323,-1,323,322,324,-1,323,324,325,-1,73,71,299,-1,299,71,298,-1,299,298,301,-1,301,298,320,-1,301,320,303,-1,303,320,323,-1,303,323,308,-1,308,323,325,-1,308,325,326,-1,326,327,308,-1,308,327,315,-1,308,315,306,-1,306,315,314,-1,327,328,315,-1,315,328,329,-1,315,329,313,-1,313,329,330,-1,313,330,1,-1,61,311,63,-1,63,311,313,-1,63,313,65,-1,65,313,1,-1,3,1,170,-1,170,1,330,-1,170,330,331,-1,331,330,329,-1,331,329,332,-1,332,329,328,-1,332,328,333,-1,333,328,327,-1,333,327,334,-1,334,327,326,-1,334,326,335,-1,335,326,325,-1,335,325,336,-1,336,325,324,-1,336,324,337,-1,337,324,322,-1,337,322,338,-1,338,322,321,-1,338,321,339,-1,339,321,319,-1,339,319,175,-1,175,319,6,-1,6,319,318,-1,6,318,4,-1,339,175,20,-1,339,20,338,-1,20,40,338,-1,338,40,36,-1,338,36,337,-1,337,36,336,-1,36,35,336,-1,336,35,57,-1,336,57,335,-1,335,57,59,-1,335,59,334,-1,59,58,334,-1,334,58,37,-1,334,37,333,-1,333,37,38,-1,333,38,332,-1,332,38,39,-1,332,39,331,-1,331,39,22,-1,331,22,170,-1,340,341,342,-1,343,344,345,-1,346,347,348,-1,344,349,345,-1,345,349,350,-1,345,350,346,-1,346,350,351,-1,346,351,347,-1,352,353,354,-1,354,353,355,-1,354,355,356,-1,356,355,357,-1,356,357,358,-1,358,357,359,-1,359,357,105,-1,359,105,102,-1,14,103,360,-1,360,103,361,-1,360,361,362,-1,362,361,363,-1,364,365,366,-1,366,365,367,-1,366,367,363,-1,363,367,368,-1,363,368,362,-1,103,105,361,-1,361,105,357,-1,361,357,363,-1,363,357,355,-1,363,355,366,-1,366,355,353,-1,341,364,342,-1,342,364,366,-1,342,366,369,-1,369,366,353,-1,369,353,370,-1,370,353,352,-1,371,340,345,-1,345,340,342,-1,345,342,343,-1,343,342,369,-1,64,346,62,-1,62,346,348,-1,62,348,60,-1,371,345,372,-1,372,345,346,-1,372,346,373,-1,373,346,64,-1,373,64,0,-1,12,14,172,-1,172,14,360,-1,172,360,374,-1,374,360,362,-1,374,362,375,-1,375,362,368,-1,375,368,376,-1,376,368,367,-1,376,367,377,-1,377,367,365,-1,377,365,378,-1,378,365,364,-1,378,364,379,-1,379,364,341,-1,379,341,380,-1,380,341,340,-1,380,340,381,-1,381,340,371,-1,381,371,382,-1,382,371,372,-1,382,372,171,-1,171,372,2,-1,2,372,373,-1,2,373,0,-1,55,53,377,-1,377,53,376,-1,376,53,51,-1,376,51,375,-1,375,51,50,-1,375,50,374,-1,374,50,28,-1,374,28,172,-1,55,377,56,-1,56,377,378,-1,56,378,54,-1,54,378,379,-1,54,379,52,-1,381,27,26,-1,52,379,26,-1,26,379,380,-1,26,380,381,-1,27,381,21,-1,21,381,382,-1,21,382,171,-1,383,99,97,-1,384,385,386,-1,386,385,383,-1,387,388,389,-1,389,388,384,-1,390,391,392,-1,392,391,393,-1,392,393,387,-1,394,395,396,-1,396,395,390,-1,397,398,399,-1,399,398,394,-1,67,66,397,-1,383,97,386,-1,386,97,95,-1,386,95,400,-1,87,401,402,-1,95,93,400,-1,400,93,91,-1,400,91,402,-1,402,91,89,-1,402,89,87,-1,87,85,401,-1,401,85,83,-1,401,83,403,-1,403,83,81,-1,403,81,404,-1,404,81,79,-1,79,77,404,-1,404,77,11,-1,404,11,405,-1,384,386,389,-1,389,386,400,-1,389,400,406,-1,406,400,402,-1,406,402,407,-1,407,402,401,-1,407,401,408,-1,408,401,403,-1,408,403,409,-1,409,403,404,-1,409,404,410,-1,410,404,405,-1,410,405,411,-1,387,389,392,-1,392,389,406,-1,392,406,412,-1,412,406,407,-1,412,407,413,-1,413,407,408,-1,413,408,414,-1,414,408,409,-1,414,409,415,-1,415,409,410,-1,415,410,416,-1,416,410,411,-1,416,411,417,-1,390,392,396,-1,396,392,412,-1,396,412,418,-1,418,412,413,-1,418,413,419,-1,419,413,414,-1,419,414,420,-1,420,414,415,-1,420,415,421,-1,421,415,416,-1,421,416,422,-1,422,416,417,-1,422,417,423,-1,394,396,399,-1,399,396,418,-1,399,418,424,-1,424,418,419,-1,424,419,425,-1,425,419,420,-1,425,420,426,-1,426,420,421,-1,426,421,427,-1,427,421,422,-1,427,422,428,-1,428,422,423,-1,428,423,429,-1,397,399,67,-1,67,399,424,-1,67,424,69,-1,69,424,425,-1,69,425,75,-1,75,425,426,-1,75,426,74,-1,74,426,427,-1,74,427,72,-1,72,427,428,-1,72,428,70,-1,70,428,429,-1,70,429,5,-1,174,7,5,-1,174,5,430,-1,430,5,429,-1,430,429,431,-1,431,429,423,-1,431,423,432,-1,432,423,433,-1,433,423,417,-1,433,417,434,-1,434,417,435,-1,435,417,411,-1,435,411,436,-1,436,411,437,-1,437,411,405,-1,437,405,438,-1,11,9,405,-1,405,9,177,-1,405,177,438,-1,438,177,17,-1,438,17,437,-1,17,25,437,-1,437,25,24,-1,437,24,436,-1,436,24,435,-1,24,43,435,-1,435,43,45,-1,435,45,434,-1,434,45,46,-1,434,46,433,-1,46,44,433,-1,433,44,42,-1,433,42,432,-1,432,42,41,-1,432,41,431,-1,431,41,23,-1,431,23,430,-1,430,23,16,-1,430,16,174,-1,
        ]
    }
}
Shape{
    appearance Appearance {
        material  Material {
            diffuseColor 1.0 1.0 1.0
            specularColor 0.30196078431372547 0.30196078431372547 0.30196078431372547
            ambientIntensity 1.0
            transparency 0.0
            shininess 0.5
        }
    }
    geometry IndexedFaceSet {
        ccw TRUE
        solid FALSE
        coord DEF co Coordinate {
            point [
                0.0984 1.7776 1.9882, 0.0984 1.7776 0.1378, 0.0984 1.8996 1.9882, 0.0984 1.8996 0.1378, 0.689 1.8996 1.7913, 0.689 1.8996 0.1378, 0.689 1.7776 1.7913, 0.689 1.7776 0.1378
            ]
        }
        coordIndex [
            0,1,2,-1,2,1,3,-1,4,5,6,-1,6,5,7,-1,
        ]
    }
}
Shape{
    appearance Appearance {
        material  Material {
            diffuseColor 0.7686274509803922 0.7686274509803922 0.7686274509803922
            specularColor 0.615686274509804 0.615686274509804 0.615686274509804
            ambientIntensity 0.7686
            transparency 0.0
            shininess 0.5
        }
    }
    geometry IndexedFaceSet {
        ccw TRUE
        solid FALSE
        coord DEF co Coordinate {
            point [
                0.4921 1.7815 1.122, 0.2953 1.7815 1.122, 0.4921 1.7815 -1.2205, 0.2953 1.7815 -1.2205, 0.2756 1.8012 1.122, 0.2756 1.998 1.122, 0.2756 1.8012 -1.2205, 0.2756 1.998 -1.2205, 0.4921 2.0177 -1.2205, 0.2953 2.0177 -1.2205, 0.4921 2.0177 1.122, 0.2953 2.0177 1.122, 0.5118 1.8012 -1.2205, 0.5118 1.998 -1.2205, 0.5118 1.8012 1.122, 0.5118 1.998 1.122, 0.4696 1.9565 -1.378, 0.4696 1.8427 -1.378, 0.3178 1.8427 -1.378, 0.4506 1.8237 -1.378, 0.3368 1.8237 -1.378, 0.3178 1.9565 -1.378, 0.3368 1.9755 -1.378, 0.4506 1.9755 -1.378, 0.4602 1.8262 -1.378, 0.458 1.8251 -1.378, 0.4671 1.8331 -1.378, 0.4682 1.8353 -1.378, 0.469 1.8377 -1.378, 0.4556 1.8243 -1.378, 0.3203 1.8331 -1.378, 0.3192 1.8353 -1.378, 0.3294 1.8251 -1.378, 0.3272 1.973 -1.378, 0.3294 1.9741 -1.378, 0.3203 1.9661 -1.378, 0.3192 1.9639 -1.378, 0.3184 1.9615 -1.378, 0.3318 1.9749 -1.378, 0.3318 1.8243 -1.378, 0.3184 1.8377 -1.378, 0.4556 1.9749 -1.378, 0.4682 1.9639 -1.378, 0.469 1.9615 -1.378, 0.458 1.9741 -1.378, 0.4602 1.973 -1.378, 0.4671 1.9661 -1.378, 0.4623 1.8276 -1.378, 0.4657 1.831 -1.378, 0.4641 1.8292 -1.378, 0.3251 1.9716 -1.378, 0.3217 1.9682 -1.378, 0.3233 1.97 -1.378, 0.3272 1.8262 -1.378, 0.3251 1.8276 -1.378, 0.3217 1.831 -1.378, 0.3233 1.8292 -1.378, 0.4657 1.9682 -1.378, 0.4623 1.9716 -1.378, 0.4641 1.97 -1.378, 0.4921 1.7776 1.1466, 0.2953 1.7776 1.1466, 0.4921 1.7793 1.1406, 0.2953 1.7793 1.1406, 0.4921 1.78 1.1344, 0.2953 1.78 1.1344, 0.2756 1.7776 1.4077, 0.2756 1.824 1.3913, 0.2756 1.7776 1.186, 0.2756 1.873 1.3633, 0.2756 1.9926 1.1782, 0.2756 1.7984 1.1452, 0.2756 1.9767 1.2323, 0.2756 1.7903 1.167, 0.2756 1.9507 1.2823, 0.2756 1.9157 1.3266, 0.4921 2.012 1.1819, 0.2953 2.012 1.1819, 0.4921 2.0093 1.1911, 0.2953 2.0093 1.1911, 0.4921 1.9949 1.2396, 0.2953 1.9949 1.2396, 0.4921 1.9861 1.2567, 0.2953 1.9861 1.2567, 0.4921 1.9673 1.293, 0.2953 1.9673 1.293, 0.4921 1.9494 1.3156, 0.2953 1.9494 1.3156, 0.4921 1.9299 1.3402, 0.2953 1.9299 1.3402, 0.4921 1.9008 1.3653, 0.2953 1.9008 1.3653, 0.4921 1.8843 1.3794, 0.2953 1.8843 1.3794, 0.4921 1.8426 1.4032, 0.2953 1.8426 1.4032, 0.4921 1.8321 1.4092, 0.2953 1.8321 1.4092, 0.4921 1.7776 1.428, 0.2953 1.7776 1.428, 0.5118 1.824 1.3913, 0.5118 1.7776 1.4077, 0.5118 1.7776 1.186, 0.5118 1.7984 1.1452, 0.5118 1.9926 1.1782, 0.5118 1.7903 1.167, 0.5118 1.873 1.3633, 0.5118 1.9767 1.2323, 0.5118 1.9507 1.2823, 0.5118 1.9157 1.3266, 0.3178 -0.1476 1.3758, 0.3178 -0.1476 1.262, 0.3368 -0.1476 1.3948, 0.4696 -0.1476 1.262, 0.3368 -0.1476 1.243, 0.4506 -0.1476 1.243, 0.4556 -0.1476 1.2436, 0.458 -0.1476 1.2444, 0.4696 -0.1476 1.3758, 0.4506 -0.1476 1.3948, 0.3184 -0.1476 1.257, 0.3294 -0.1476 1.2444, 0.3318 -0.1476 1.2436, 0.3318 -0.1476 1.3942, 0.3294 -0.1476 1.3934, 0.3184 -0.1476 1.3808, 0.3192 -0.1476 1.3832, 0.469 -0.1476 1.3808, 0.458 -0.1476 1.3934, 0.4556 -0.1476 1.3942, 0.4641 -0.1476 1.2485, 0.4657 -0.1476 1.2503, 0.4623 -0.1476 1.2469, 0.4671 -0.1476 1.2524, 0.4602 -0.1476 1.2455, 0.4682 -0.1476 1.2546, 0.469 -0.1476 1.257, 0.3192 -0.1476 1.2546, 0.3203 -0.1476 1.2524, 0.3272 -0.1476 1.2455, 0.3217 -0.1476 1.2503, 0.3251 -0.1476 1.2469, 0.3233 -0.1476 1.2485, 0.3203 -0.1476 1.3854, 0.3272 -0.1476 1.3923, 0.3217 -0.1476 1.3875, 0.3251 -0.1476 1.3909, 0.3233 -0.1476 1.3893, 0.4682 -0.1476 1.3832, 0.4671 -0.1476 1.3854, 0.4602 -0.1476 1.3923, 0.4657 -0.1476 1.3875, 0.4623 -0.1476 1.3909, 0.4641 -0.1476 1.3893, 0.5118 1.4075 1.2205, 0.5118 1.4075 1.4173, 0.5118 0.0098 1.2205, 0.5118 0.0098 1.4173, 0.4921 1.4075 1.437, 0.2953 1.4075 1.437, 0.4921 0.0098 1.437, 0.2953 0.0098 1.437, 0.2756 1.4075 1.4173, 0.2756 1.4075 1.2205, 0.2756 0.0098 1.4173, 0.2756 0.0098 1.2205, 0.4921 0.0098 1.2008, 0.2953 0.0098 1.2008, 0.4921 1.4075 1.2008, 0.2953 1.4075 1.2008, 0.2946 1.7815 -1.2205, 0.4928 1.7815 -1.2205, 0.5118 1.8005 -1.2205, 0.5118 1.9987 -1.2205, 0.2756 1.9987 -1.2205, 0.2756 1.8005 -1.2205, 0.4928 2.0177 -1.2205, 0.2946 2.0177 -1.2205, 0.2946 0.0098 1.437, 0.4928 0.0098 1.437, 0.2756 0.0098 1.2198, 0.2756 0.0098 1.418, 0.5118 0.0098 1.418, 0.5118 0.0098 1.2198, 0.4928 0.0098 1.2008, 0.2946 0.0098 1.2008, 0.4972 0.0093 1.2015, 0.4972 1.4075 1.2015, 0.4976 0.0093 1.2016, 0.502 1.4075 1.2034, 0.502 0.009 1.2034, 0.5022 0.0089 1.2035, 0.506 1.4075 1.2066, 0.506 0.0088 1.2066, 0.5091 0.0089 1.2104, 0.5092 1.4075 1.2106, 0.5091 0.009 1.2106, 0.511 0.0093 1.215, 0.5111 1.4075 1.2154, 0.5111 0.0093 1.2154, 0.2763 0.0093 1.2154, 0.2763 1.4075 1.2154, 0.2764 0.0093 1.215, 0.2782 1.4075 1.2106, 0.2783 0.009 1.2106, 0.2783 0.0089 1.2104, 0.2814 1.4075 1.2066, 0.2814 0.0088 1.2066, 0.2852 0.0089 1.2035, 0.2854 1.4075 1.2034, 0.2854 0.009 1.2034, 0.2898 0.0093 1.2016, 0.2902 1.4075 1.2015, 0.2902 0.0093 1.2015, 0.5111 0.0093 1.4224, 0.5111 1.4075 1.4224, 0.511 0.0093 1.4228, 0.5092 1.4075 1.4272, 0.5091 0.009 1.4272, 0.5091 0.0089 1.4274, 0.506 1.4075 1.4312, 0.506 0.0088 1.4312, 0.5022 0.0089 1.4343, 0.502 1.4075 1.4344, 0.502 0.009 1.4343, 0.4976 0.0093 1.4362, 0.4972 1.4075 1.4363, 0.4972 0.0093 1.4363, 0.2902 0.0093 1.4363, 0.2902 1.4075 1.4363, 0.2898 0.0093 1.4362, 0.2854 1.4075 1.4344, 0.2854 0.009 1.4343, 0.2852 0.0089 1.4343, 0.2814 1.4075 1.4312, 0.2814 0.0088 1.4312, 0.2783 0.0089 1.4274, 0.2782 1.4075 1.4272, 0.2783 0.009 1.4272, 0.2764 0.0093 1.4228, 0.2763 1.4075 1.4224, 0.2763 0.0093 1.4224, 0.4972 2.017 1.122, 0.5112 1.7776 1.4126, 0.5106 1.7776 1.4146, 0.5111 1.7776 1.4129, 0.5111 1.8261 1.3959, 0.5085 1.7776 1.4189, 0.5091 1.7776 1.4178, 0.5092 1.828 1.4003, 0.5039 1.7776 1.424, 0.506 1.7776 1.422, 0.506 1.8297 1.404, 0.5073 1.7776 1.4207, 0.4979 1.7776 1.4271, 0.5021 1.7776 1.4252, 0.502 1.831 1.4068, 0.4972 1.8318 1.4086, 0.4972 1.7776 1.4273, 0.4959 1.7776 1.4276, 0.4972 2.0113 1.1818, 0.4972 1.9943 1.2394, 0.4972 1.9667 1.2927, 0.4972 1.9294 1.3397, 0.4972 1.8839 1.3789, 0.502 1.8828 1.3773, 0.502 1.928 1.3384, 0.502 1.965 1.2916, 0.502 1.9925 1.2386, 0.502 2.0094 1.1814, 0.502 2.0151 1.122, 0.506 1.881 1.3747, 0.506 1.9258 1.3362, 0.506 1.9624 1.2899, 0.506 1.9896 1.2375, 0.506 2.0063 1.1808, 0.506 2.0119 1.122, 0.5092 1.8786 1.3714, 0.5092 1.9228 1.3334, 0.5092 1.959 1.2877, 0.5092 1.9858 1.2359, 0.5092 2.0023 1.1801, 0.5092 2.0079 1.122, 0.5111 1.8759 1.3675, 0.5111 1.9194 1.3301, 0.5111 1.955 1.2851, 0.5111 1.9814 1.2342, 0.5111 1.9976 1.1792, 0.5111 2.0031 1.122, 0.4972 2.017 -1.221, 0.4976 2.0169 -1.221, 0.502 2.0151 -1.2214, 0.5022 2.015 -1.2214, 0.506 2.0119 -1.2215, 0.5091 2.0081 -1.2214, 0.5091 2.0079 -1.2214, 0.511 2.0035 -1.221, 0.5111 2.0031 -1.221, 0.2761 1.7942 1.1441, 0.2761 1.7864 1.165, 0.2765 1.7776 1.1789, 0.2775 1.7827 1.1631, 0.2773 1.7776 1.1728, 0.2799 1.7794 1.1614, 0.2801 1.7776 1.1649, 0.2785 1.7776 1.1686, 0.2871 1.7776 1.1518, 0.2834 1.7776 1.1574, 0.283 1.7835 1.1416, 0.2831 1.7776 1.1581, 0.282 1.7776 1.1606, 0.2947 1.7776 1.1467, 0.2932 1.7776 1.147, 0.2909 1.7798 1.1407, 0.2898 1.7776 1.149, 0.2867 1.7812 1.141, 0.2909 1.7776 1.1482, 0.2918 1.7776 1.1476, 0.2761 1.7968 1.122, 0.2763 1.7961 1.122, 0.2775 1.7901 1.1432, 0.2775 1.7926 1.122, 0.2783 1.7914 1.122, 0.2799 1.7865 1.1423, 0.2799 1.7889 1.122, 0.2814 1.7873 1.122, 0.283 1.7858 1.122, 0.2855 1.7842 1.122, 0.2867 1.7834 1.122, 0.2902 1.7822 1.122, 0.2909 1.782 1.122, 0.2902 1.7822 -1.221, 0.2898 1.7823 -1.221, 0.2854 1.7842 -1.2214, 0.2852 1.7842 -1.2214, 0.2814 1.7873 -1.2215, 0.2783 1.7911 -1.2214, 0.2783 1.7913 -1.2214, 0.2764 1.7957 -1.221, 0.2763 1.7961 -1.221, 0.5019 1.7842 1.122, 0.5044 1.7858 1.122, 0.5044 1.7835 1.1416, 0.5026 1.7776 1.1551, 0.5012 1.7776 1.153, 0.5007 1.7812 1.141, 0.4965 1.7798 1.1407, 0.4946 1.7776 1.1471, 0.4937 1.7776 1.1468, 0.4974 1.7776 1.1489, 0.4968 1.7776 1.1484, 0.4965 1.7776 1.1482, 0.5073 1.7776 1.1649, 0.5075 1.7794 1.1614, 0.5086 1.7776 1.1678, 0.5099 1.7827 1.1631, 0.5097 1.7776 1.1712, 0.5113 1.7864 1.165, 0.5109 1.7776 1.1789, 0.5118 1.7776 1.184, 0.5113 1.7968 1.122, 0.5113 1.7942 1.1441, 0.5111 1.7961 1.122, 0.5099 1.7901 1.1432, 0.506 1.7873 1.122, 0.5075 1.7889 1.122, 0.5075 1.7865 1.1423, 0.5091 1.7914 1.122, 0.5099 1.7926 1.122, 0.5041 1.7776 1.1583, 0.5052 1.7776 1.1606, 0.5007 1.7834 1.122, 0.4972 1.7822 1.122, 0.4965 1.782 1.122, 0.5111 1.7961 -1.221, 0.511 1.7957 -1.221, 0.5091 1.7913 -1.2214, 0.5091 1.7911 -1.2214, 0.506 1.7873 -1.2215, 0.5022 1.7842 -1.2214, 0.502 1.7842 -1.2214, 0.4976 1.7823 -1.221, 0.4972 1.7822 -1.221, 0.2908 1.7776 1.4275, 0.2889 1.7776 1.4269, 0.2902 1.7776 1.4273, 0.2902 1.8318 1.4086, 0.2832 1.7776 1.4238, 0.2848 1.7776 1.4249, 0.2854 1.831 1.4068, 0.2789 1.7776 1.4189, 0.2799 1.7776 1.4204, 0.2814 1.8297 1.404, 0.2815 1.7776 1.422, 0.2767 1.7776 1.4145, 0.2783 1.7776 1.4178, 0.2782 1.828 1.4003, 0.2762 1.7776 1.4127, 0.2763 1.7776 1.413, 0.2763 1.8261 1.3959, 0.2902 1.8839 1.3789, 0.2902 1.9667 1.2927, 0.2902 1.9294 1.3397, 0.2902 1.9943 1.2394, 0.2902 2.0113 1.1818, 0.2902 2.017 1.122, 0.2854 1.8828 1.3773, 0.2854 1.928 1.3384, 0.2854 1.965 1.2916, 0.2854 1.9925 1.2386, 0.2854 2.0094 1.1814, 0.2854 2.0151 1.122, 0.2814 1.881 1.3747, 0.2814 1.9258 1.3362, 0.2814 1.9624 1.2899, 0.2814 1.9896 1.2375, 0.2814 2.0063 1.1808, 0.2814 2.0119 1.122, 0.2782 1.8786 1.3714, 0.2782 1.9228 1.3334, 0.2782 1.959 1.2877, 0.2782 1.9858 1.2359, 0.2782 2.0023 1.1801, 0.2782 2.0079 1.122, 0.2763 1.8759 1.3675, 0.2763 1.9194 1.3301, 0.2763 1.955 1.2851, 0.2763 1.9814 1.2342, 0.2763 1.9976 1.1792, 0.2763 2.0031 1.122, 0.2763 2.0031 -1.221, 0.2764 2.0035 -1.221, 0.2783 2.0079 -1.2214, 0.2783 2.0081 -1.2214, 0.2814 2.0119 -1.2215, 0.2852 2.015 -1.2214, 0.2854 2.0151 -1.2214, 0.2898 2.0169 -1.221, 0.2902 2.017 -1.221
            ]
        }
        coordIndex [
            0,1,2,-1,2,1,3,-1,4,5,6,-1,6,5,7,-1,8,9,10,-1,10,9,11,-1,12,13,14,-1,14,13,15,-1,16,17,18,-1,18,17,19,-1,18,19,20,-1,18,21,16,-1,16,21,22,-1,16,22,23,-1,24,25,26,-1,26,25,27,-1,17,28,19,-1,19,28,27,-1,19,27,29,-1,29,27,25,-1,30,31,32,-1,33,34,35,-1,35,34,36,-1,21,37,22,-1,22,37,36,-1,22,36,38,-1,38,36,34,-1,20,39,18,-1,18,39,32,-1,18,32,40,-1,40,32,31,-1,41,42,23,-1,23,42,43,-1,23,43,16,-1,41,44,42,-1,42,44,45,-1,42,45,46,-1,24,26,47,-1,47,26,48,-1,47,48,49,-1,33,35,50,-1,50,35,51,-1,50,51,52,-1,32,53,30,-1,30,53,54,-1,30,54,55,-1,55,54,56,-1,46,45,57,-1,57,45,58,-1,57,58,59,-1,60,61,62,-1,62,61,63,-1,62,63,64,-1,64,63,65,-1,64,65,0,-1,0,65,1,-1,66,67,68,-1,68,67,69,-1,5,4,70,-1,70,4,71,-1,70,71,72,-1,72,71,73,-1,72,73,74,-1,74,73,68,-1,74,68,75,-1,75,68,69,-1,10,11,76,-1,76,11,77,-1,76,77,78,-1,78,77,79,-1,78,79,80,-1,80,79,81,-1,80,81,82,-1,82,81,83,-1,82,83,84,-1,84,83,85,-1,84,85,86,-1,86,85,87,-1,86,87,88,-1,88,87,89,-1,88,89,90,-1,90,89,91,-1,90,91,92,-1,92,91,93,-1,92,93,94,-1,94,93,95,-1,94,95,96,-1,96,95,97,-1,96,97,98,-1,98,97,99,-1,100,101,102,-1,14,15,103,-1,103,15,104,-1,103,104,105,-1,100,102,106,-1,104,107,105,-1,105,107,108,-1,105,108,102,-1,102,108,109,-1,102,109,106,-1,110,111,112,-1,113,111,114,-1,114,115,113,-1,113,115,116,-1,113,116,117,-1,111,113,112,-1,112,113,118,-1,112,118,119,-1,120,121,111,-1,111,121,122,-1,111,122,114,-1,112,123,110,-1,110,123,124,-1,110,124,125,-1,125,124,126,-1,127,128,118,-1,118,128,129,-1,118,129,119,-1,130,131,132,-1,132,131,133,-1,132,133,134,-1,134,133,135,-1,134,135,117,-1,117,135,136,-1,117,136,113,-1,120,137,121,-1,121,137,138,-1,121,138,139,-1,139,138,140,-1,139,140,141,-1,141,140,142,-1,126,124,143,-1,143,124,144,-1,143,144,145,-1,145,144,146,-1,145,146,147,-1,127,148,128,-1,128,148,149,-1,128,149,150,-1,150,149,151,-1,150,151,152,-1,152,151,153,-1,154,155,156,-1,156,155,157,-1,158,159,160,-1,160,159,161,-1,162,163,164,-1,164,163,165,-1,166,167,168,-1,168,167,169,-1,3,170,20,-1,3,20,2,-1,2,20,19,-1,2,19,171,-1,12,172,17,-1,12,17,13,-1,13,17,16,-1,13,16,173,-1,7,174,21,-1,7,21,6,-1,6,21,18,-1,6,18,175,-1,8,176,23,-1,8,23,9,-1,9,23,22,-1,9,22,177,-1,161,178,112,-1,161,112,160,-1,160,112,119,-1,160,119,179,-1,180,111,165,-1,165,111,110,-1,165,110,164,-1,164,110,181,-1,157,182,118,-1,157,118,156,-1,156,118,113,-1,156,113,183,-1,166,184,115,-1,166,115,167,-1,167,115,114,-1,167,114,185,-1,184,166,168,-1,184,168,186,-1,186,168,187,-1,186,187,188,-1,188,187,189,-1,188,189,190,-1,190,189,191,-1,191,189,192,-1,191,192,193,-1,193,192,194,-1,194,192,195,-1,194,195,196,-1,196,195,197,-1,197,195,198,-1,197,198,199,-1,154,156,198,-1,198,156,183,-1,198,183,199,-1,132,134,191,-1,191,134,190,-1,190,134,117,-1,190,117,188,-1,188,117,116,-1,188,116,186,-1,186,116,115,-1,186,115,184,-1,132,191,130,-1,130,191,193,-1,130,193,131,-1,131,193,194,-1,131,194,133,-1,197,136,135,-1,133,194,135,-1,135,194,196,-1,135,196,197,-1,136,197,113,-1,113,197,199,-1,113,199,183,-1,180,165,163,-1,180,163,200,-1,200,163,201,-1,200,201,202,-1,202,201,203,-1,202,203,204,-1,204,203,205,-1,205,203,206,-1,205,206,207,-1,207,206,208,-1,208,206,209,-1,208,209,210,-1,210,209,211,-1,211,209,212,-1,211,212,213,-1,169,167,212,-1,212,167,185,-1,212,185,213,-1,213,185,114,-1,213,114,211,-1,114,122,211,-1,211,122,121,-1,211,121,210,-1,210,121,208,-1,121,139,208,-1,208,139,141,-1,208,141,207,-1,207,141,142,-1,207,142,205,-1,142,140,205,-1,205,140,138,-1,205,138,204,-1,204,138,137,-1,204,137,202,-1,202,137,120,-1,202,120,200,-1,200,120,111,-1,200,111,180,-1,182,157,155,-1,182,155,214,-1,214,155,215,-1,214,215,216,-1,216,215,217,-1,216,217,218,-1,218,217,219,-1,219,217,220,-1,219,220,221,-1,221,220,222,-1,222,220,223,-1,222,223,224,-1,224,223,225,-1,225,223,226,-1,225,226,227,-1,158,160,226,-1,226,160,179,-1,226,179,227,-1,151,149,219,-1,219,149,218,-1,218,149,148,-1,218,148,216,-1,216,148,127,-1,216,127,214,-1,214,127,118,-1,214,118,182,-1,151,219,153,-1,153,219,221,-1,153,221,152,-1,152,221,222,-1,152,222,150,-1,225,129,128,-1,150,222,128,-1,128,222,224,-1,128,224,225,-1,129,225,119,-1,119,225,227,-1,119,227,179,-1,178,161,159,-1,178,159,228,-1,228,159,229,-1,228,229,230,-1,230,229,231,-1,230,231,232,-1,232,231,233,-1,233,231,234,-1,233,234,235,-1,235,234,236,-1,236,234,237,-1,236,237,238,-1,238,237,239,-1,239,237,240,-1,239,240,241,-1,162,164,240,-1,240,164,181,-1,240,181,241,-1,241,181,110,-1,241,110,239,-1,110,125,239,-1,239,125,126,-1,239,126,238,-1,238,126,236,-1,126,143,236,-1,236,143,145,-1,236,145,235,-1,235,145,147,-1,235,147,233,-1,147,146,233,-1,233,146,144,-1,233,144,232,-1,232,144,124,-1,232,124,230,-1,230,124,123,-1,230,123,228,-1,228,123,112,-1,228,112,178,-1,242,10,76,-1,243,101,100,-1,244,245,246,-1,246,245,243,-1,247,248,249,-1,249,248,244,-1,250,251,252,-1,252,251,253,-1,252,253,247,-1,254,255,256,-1,256,255,250,-1,257,258,254,-1,258,257,259,-1,259,257,96,-1,259,96,98,-1,242,76,260,-1,260,76,78,-1,260,78,261,-1,78,80,261,-1,261,80,82,-1,261,82,262,-1,82,84,262,-1,262,84,86,-1,262,86,263,-1,86,88,263,-1,263,88,90,-1,263,90,264,-1,264,90,92,-1,264,92,257,-1,257,92,94,-1,257,94,96,-1,254,256,257,-1,257,256,265,-1,257,265,264,-1,264,265,266,-1,264,266,263,-1,263,266,267,-1,263,267,262,-1,262,267,268,-1,262,268,261,-1,261,268,269,-1,261,269,260,-1,260,269,270,-1,260,270,242,-1,250,252,256,-1,256,252,271,-1,256,271,265,-1,265,271,272,-1,265,272,266,-1,266,272,273,-1,266,273,267,-1,267,273,274,-1,267,274,268,-1,268,274,275,-1,268,275,269,-1,269,275,276,-1,269,276,270,-1,247,249,252,-1,252,249,277,-1,252,277,271,-1,271,277,278,-1,271,278,272,-1,272,278,279,-1,272,279,273,-1,273,279,280,-1,273,280,274,-1,274,280,281,-1,274,281,275,-1,275,281,282,-1,275,282,276,-1,244,246,249,-1,249,246,283,-1,249,283,277,-1,277,283,284,-1,277,284,278,-1,278,284,285,-1,278,285,279,-1,279,285,286,-1,279,286,280,-1,280,286,287,-1,280,287,281,-1,281,287,288,-1,281,288,282,-1,243,100,246,-1,246,100,106,-1,246,106,283,-1,283,106,109,-1,283,109,284,-1,284,109,108,-1,284,108,285,-1,285,108,107,-1,285,107,286,-1,286,107,104,-1,286,104,287,-1,287,104,15,-1,287,15,288,-1,176,8,10,-1,176,10,289,-1,289,10,242,-1,289,242,290,-1,290,242,270,-1,290,270,291,-1,291,270,292,-1,292,270,276,-1,292,276,293,-1,293,276,294,-1,294,276,282,-1,294,282,295,-1,295,282,296,-1,296,282,288,-1,296,288,297,-1,15,13,288,-1,288,13,173,-1,288,173,297,-1,58,45,292,-1,292,45,291,-1,291,45,44,-1,291,44,290,-1,290,44,41,-1,290,41,289,-1,289,41,23,-1,289,23,176,-1,58,292,59,-1,59,292,293,-1,59,293,57,-1,57,293,294,-1,57,294,46,-1,296,43,42,-1,46,294,42,-1,42,294,295,-1,42,295,296,-1,43,296,16,-1,16,296,297,-1,16,297,173,-1,298,71,4,-1,68,73,299,-1,68,299,300,-1,300,299,301,-1,300,301,302,-1,303,304,301,-1,301,304,305,-1,301,305,302,-1,306,307,308,-1,308,307,309,-1,308,309,303,-1,303,309,310,-1,303,310,304,-1,311,312,313,-1,314,315,316,-1,316,315,313,-1,316,313,317,-1,317,313,312,-1,4,318,298,-1,298,318,319,-1,298,319,320,-1,319,321,320,-1,320,321,322,-1,320,322,323,-1,323,322,324,-1,323,324,325,-1,73,71,299,-1,299,71,298,-1,299,298,301,-1,301,298,320,-1,301,320,303,-1,303,320,323,-1,303,323,308,-1,308,323,325,-1,308,325,326,-1,326,327,308,-1,308,327,315,-1,308,315,306,-1,306,315,314,-1,327,328,315,-1,315,328,329,-1,315,329,313,-1,313,329,330,-1,313,330,1,-1,61,311,63,-1,63,311,313,-1,63,313,65,-1,65,313,1,-1,3,1,170,-1,170,1,330,-1,170,330,331,-1,331,330,329,-1,331,329,332,-1,332,329,328,-1,332,328,333,-1,333,328,327,-1,333,327,334,-1,334,327,326,-1,334,326,335,-1,335,326,325,-1,335,325,336,-1,336,325,324,-1,336,324,337,-1,337,324,322,-1,337,322,338,-1,338,322,321,-1,338,321,339,-1,339,321,319,-1,339,319,175,-1,175,319,6,-1,6,319,318,-1,6,318,4,-1,339,175,18,-1,339,18,338,-1,18,40,338,-1,338,40,31,-1,338,31,337,-1,337,31,336,-1,31,30,336,-1,336,30,55,-1,336,55,335,-1,335,55,56,-1,335,56,334,-1,56,54,334,-1,334,54,53,-1,334,53,333,-1,333,53,32,-1,333,32,332,-1,332,32,39,-1,332,39,331,-1,331,39,20,-1,331,20,170,-1,340,341,342,-1,343,344,345,-1,346,347,348,-1,344,349,345,-1,345,349,350,-1,345,350,346,-1,346,350,351,-1,346,351,347,-1,352,353,354,-1,354,353,355,-1,354,355,356,-1,356,355,357,-1,356,357,358,-1,358,357,359,-1,359,357,105,-1,359,105,102,-1,14,103,360,-1,360,103,361,-1,360,361,362,-1,362,361,363,-1,364,365,366,-1,366,365,367,-1,366,367,363,-1,363,367,368,-1,363,368,362,-1,103,105,361,-1,361,105,357,-1,361,357,363,-1,363,357,355,-1,363,355,366,-1,366,355,353,-1,341,364,342,-1,342,364,366,-1,342,366,369,-1,369,366,353,-1,369,353,370,-1,370,353,352,-1,371,340,345,-1,345,340,342,-1,345,342,343,-1,343,342,369,-1,64,346,62,-1,62,346,348,-1,62,348,60,-1,371,345,372,-1,372,345,346,-1,372,346,373,-1,373,346,64,-1,373,64,0,-1,12,14,172,-1,172,14,360,-1,172,360,374,-1,374,360,362,-1,374,362,375,-1,375,362,368,-1,375,368,376,-1,376,368,367,-1,376,367,377,-1,377,367,365,-1,377,365,378,-1,378,365,364,-1,378,364,379,-1,379,364,341,-1,379,341,380,-1,380,341,340,-1,380,340,381,-1,381,340,371,-1,381,371,382,-1,382,371,372,-1,382,372,171,-1,171,372,2,-1,2,372,373,-1,2,373,0,-1,48,26,377,-1,377,26,376,-1,376,26,27,-1,376,27,375,-1,375,27,28,-1,375,28,374,-1,374,28,17,-1,374,17,172,-1,48,377,49,-1,49,377,378,-1,49,378,47,-1,47,378,379,-1,47,379,24,-1,381,29,25,-1,24,379,25,-1,25,379,380,-1,25,380,381,-1,29,381,19,-1,19,381,382,-1,19,382,171,-1,383,99,97,-1,384,385,386,-1,386,385,383,-1,387,388,389,-1,389,388,384,-1,390,391,392,-1,392,391,393,-1,392,393,387,-1,394,395,396,-1,396,395,390,-1,397,398,399,-1,399,398,394,-1,67,66,397,-1,383,97,386,-1,386,97,95,-1,386,95,400,-1,87,401,402,-1,95,93,400,-1,400,93,91,-1,400,91,402,-1,402,91,89,-1,402,89,87,-1,87,85,401,-1,401,85,83,-1,401,83,403,-1,403,83,81,-1,403,81,404,-1,404,81,79,-1,79,77,404,-1,404,77,11,-1,404,11,405,-1,384,386,389,-1,389,386,400,-1,389,400,406,-1,406,400,402,-1,406,402,407,-1,407,402,401,-1,407,401,408,-1,408,401,403,-1,408,403,409,-1,409,403,404,-1,409,404,410,-1,410,404,405,-1,410,405,411,-1,387,389,392,-1,392,389,406,-1,392,406,412,-1,412,406,407,-1,412,407,413,-1,413,407,408,-1,413,408,414,-1,414,408,409,-1,414,409,415,-1,415,409,410,-1,415,410,416,-1,416,410,411,-1,416,411,417,-1,390,392,396,-1,396,392,412,-1,396,412,418,-1,418,412,413,-1,418,413,419,-1,419,413,414,-1,419,414,420,-1,420,414,415,-1,420,415,421,-1,421,415,416,-1,421,416,422,-1,422,416,417,-1,422,417,423,-1,394,396,399,-1,399,396,418,-1,399,418,424,-1,424,418,419,-1,424,419,425,-1,425,419,420,-1,425,420,426,-1,426,420,421,-1,426,421,427,-1,427,421,422,-1,427,422,428,-1,428,422,423,-1,428,423,429,-1,397,399,67,-1,67,399,424,-1,67,424,69,-1,69,424,425,-1,69,425,75,-1,75,425,426,-1,75,426,74,-1,74,426,427,-1,74,427,72,-1,72,427,428,-1,72,428,70,-1,70,428,429,-1,70,429,5,-1,174,7,5,-1,174,5,430,-1,430,5,429,-1,430,429,431,-1,431,429,423,-1,431,423,432,-1,432,423,433,-1,433,423,417,-1,433,417,434,-1,434,417,435,-1,435,417,411,-1,435,411,436,-1,436,411,437,-1,437,411,405,-1,437,405,438,-1,11,9,405,-1,405,9,177,-1,405,177,438,-1,438,177,22,-1,438,22,437,-1,22,38,437,-1,437,38,34,-1,437,34,436,-1,436,34,435,-1,34,33,435,-1,435,33,50,-1,435,50,434,-1,434,50,52,-1,434,52,433,-1,52,51,433,-1,433,51,35,-1,433,35,432,-1,432,35,36,-1,432,36,431,-1,431,36,37,-1,431,37,430,-1,430,37,21,-1,430,21,174,-1,
        ]
    }
}
Shape{
    appearance Appearance {
        material  Material {
            diffuseColor 1.0 1.0 1.0
            specularColor 0.30196078431372547 0.30196078431372547 0.30196078431372547
            ambientIntensity 1.0
            transparency 0.0
            shininess 0.5
        }
    }
    geometry IndexedFaceSet {
        ccw TRUE
        solid FALSE
        coord DEF co Coordinate {
            point [
                1.1811 2.4705 1.2649, 1.1811 2.4705 0.0197, 0.9843 2.4705 1.2649, 0.9843 2.4705 0.0197, -0.9843 2.4705 1.2649, -0.9843 2.4705 0.0197, -1.1811 2.4705 1.2649, -1.1811 2.4705 0.0197, 0.9843 1.8996 1.5945, 1.1811 1.8996 1.5945, -1.1811 1.8996 1.5945, -0.9843 1.8996 1.5945
            ]
        }
        coordIndex [
            0,1,2,-1,2,1,3,-1,4,5,6,-1,6,5,7,-1,2,8,0,-1,0,8,9,-1,6,10,4,-1,4,10,11,-1,
        ]
    }
}